<?xml version="1.0" encoding="UTF-8" standalone="no"?>
<svg
   width="136mm"
   height="170.99999999999994mm"
   viewBox="-4 -115.99999999999997 136 170.99999999999994"
   version="1.1"
   id="svg1"
   sodipodi:docname="Placa IdeaBoard EasyPlay (10).svg"
   inkscape:version="1.3.2 (091e20e, 2023-11-25, custom)"
   xmlns:inkscape="http://www.inkscape.org/namespaces/inkscape"
   xmlns:sodipodi="http://sodipodi.sourceforge.net/DTD/sodipodi-0.dtd"
   xmlns="http://www.w3.org/2000/svg"
   xmlns:svg="http://www.w3.org/2000/svg">
  <defs
     id="defs1" />
  <sodipodi:namedview
     id="namedview1"
     pagecolor="#ffffff"
     bordercolor="#000000"
     borderopacity="0.25"
     inkscape:showpageshadow="2"
     inkscape:pageopacity="0.0"
     inkscape:pagecheckerboard="0"
     inkscape:deskcolor="#d1d1d1"
     inkscape:document-units="mm"
     inkscape:zoom="1.1434332"
     inkscape:cx="256.68311"
     inkscape:cy="323.14961"
     inkscape:window-width="1920"
     inkscape:window-height="974"
     inkscape:window-x="-11"
     inkscape:window-y="-11"
     inkscape:window-maximized="1"
     inkscape:current-layer="svg1" />
  <title
     id="title1">svgOutput</title>
  <desc
     id="desc1">made with tinkercad</desc>
  <path
     d="M 97 -68.06199645996092 L 94 -68.06199645996092 L 94 -65.53600311279295 L 94 -57.18700027465819 L 97 -57.18700027465819 L 97 -46.312000274658196 L 94 -46.312000274658196 L 94 -39.998001098632805 L 94 -32.76800155639648 L 94 -31.999999999999993 L 80.31300354003906 -31.999999999999993 L 80.31300354003906 -32.76800155639648 L 80.31300354003906 -34.99999999999999 L 69.43800354003906 -34.99999999999999 L 69.43800354003906 -32.76800155639648 L 69.43800354003906 -31.999999999999993 L 65.53600311279297 -31.999999999999993 L 58.5629997253418 -31.999999999999993 L 58.5629997253418 -32.76800155639648 L 58.5629997253418 -34.99999999999999 L 47.6879997253418 -34.99999999999999 L 47.6879997253418 -32.76800155639648 L 47.6879997253418 -31.999999999999993 L 34 -31.999999999999993 L 34 -32.76800155639648 L 34 -34.99999999999999 L 34 -46.312000274658196 L 32.768001556396484 -46.312000274658196 L 31 -46.312000274658196 L 31 -57.18700027465819 L 32.768001556396484 -57.18700027465819 L 34 -57.18700027465819 L 34 -65.53600311279295 L 34 -68.06199645996092 L 32.768001556396484 -68.06199645996092 L 31 -68.06199645996092 L 31 -78.93699645996092 L 32.768001556396484 -78.93699645996092 L 34 -78.93699645996092 L 34 -89.81199645996092 L 32.768001556396484 -89.81199645996092 L 31 -89.81199645996092 L 31 -100.68699645996091 L 32.768001556396484 -100.68699645996091 L 34 -100.68699645996091 L 34 -114.99999999999997 L 43.04899978637695 -114.99999999999997 L 46.05400085449219 -114.99999999999997 L 65.53600311279297 -114.99999999999997 L 81.9489974975586 -114.99999999999997 L 84.9540023803711 -114.99999999999997 L 94 -114.99999999999997 L 94 -103.99900054931638 L 94 -100.68699645996091 L 97 -100.68699645996091 L 97 -89.81199645996092 L 94 -89.81199645996092 L 94 -78.93699645996092 L 97 -78.93699645996092 L 97 -68.06199645996092 M 128 -8.999999999999998 L 128 1.1102230246251565e-16 L 128 4.688000202178954 L 131 4.688000202178954 L 131 15.562999725341793 L 128 15.562999725341793 L 128 26.43799972534179 L 131 26.43799972534179 L 131 32.76800155639648 L 131 37.31299972534179 L 128 37.31299972534179 L 128 50.999999999999986 L 120.93800354003906 50.999999999999986 L 120.93800354003906 53.999999999999986 L 110.06300354003906 53.999999999999986 L 110.06300354003906 50.999999999999986 L 103 50.999999999999986 L 103 37.31299972534179 L 100 37.31299972534179 L 100 32.76800155639648 L 100 26.43799972534179 L 103 26.43799972534179 L 103 15.562999725341793 L 100 15.562999725341793 L 100 4.688000202178954 L 103 4.688000202178954 L 103 1.1102230246251565e-16 L 103 -8.999999999999998 L 110.06300354003906 -8.999999999999998 L 110.06300354003906 -11.999999999999996 L 120.93800354003906 -11.999999999999996 L 120.93800354003906 -8.999999999999998 L 128 -8.999999999999998 M 28 -114.99999999999997 L 28 -100.68699645996091 L 25 -100.68699645996091 L 25 -89.81199645996092 L 28 -89.81199645996092 L 28 -78.93699645996092 L 25 -78.93699645996092 L 25 -68.06199645996092 L 28 -68.06199645996092 L 28 -65.53600311279295 L 28 -57.18700027465819 L 25 -57.18700027465819 L 25 -46.312000274658196 L 28 -46.312000274658196 L 28 -32.76800155639648 L 28 -31.999999999999993 L 17.937999725341797 -31.999999999999993 L 17.937999725341797 -32.76800155639648 L 17.937999725341797 -34.99999999999999 L 7.063000202178955 -34.99999999999999 L 7.063000202178955 -32.76800155639648 L 7.063000202178955 -31.999999999999993 L 0 -31.999999999999993 L -3 -31.999999999999993 L -3 -46.312000274658196 L 0 -46.312000274658196 L 0 -57.18700027465819 L -3 -57.18700027465819 L -3 -68.06199645996092 L 0 -68.06199645996092 L 0 -78.93699645996092 L -3 -78.93699645996092 L -3 -89.81199645996092 L 0 -89.81199645996092 L 0 -100.68699645996091 L -3 -100.68699645996091 L -3 -114.99999999999997 L 0 -114.99999999999997 L 25 -114.99999999999997 L 28 -114.99999999999997 M 28 -3.812000036239623 L 28 1.1102230246251565e-16 L 28 7.063000202178953 L 25 7.063000202178953 L 25 17.937999725341793 L 28 17.937999725341793 L 28 28.81299972534179 L 25 28.81299972534179 L 25 32.76800155639648 L 25 39.68799972534179 L 28 39.68799972534179 L 28 53.999999999999986 L 25 53.999999999999986 L 17.937999725341797 53.999999999999986 L 17.937999725341797 50.999999999999986 L 7.063000202178955 50.999999999999986 L 7.063000202178955 53.999999999999986 L 0 53.999999999999986 L -3 53.999999999999986 L -3 39.68799972534179 L 0 39.68799972534179 L 0 32.76800155639648 L 0 28.81299972534179 L -3 28.81299972534179 L -3 17.937999725341793 L 0 17.937999725341793 L 0 7.063000202178953 L -3 7.063000202178953 L -3 1.1102230246251565e-16 L -3 -3.812000036239623 L 0 -3.812000036239623 L 0 -14.6870002746582 L -3 -14.6870002746582 L -3 -28.999999999999993 L 0 -28.999999999999993 L 28 -28.999999999999993 L 28 -14.6870002746582 L 25 -14.6870002746582 L 25 -3.812000036239623 L 28 -3.812000036239623 M 31 -14.6870002746582 L 32.768001556396484 -14.6870002746582 L 34 -14.6870002746582 L 34 -28.999999999999993 L 65.53600311279297 -28.999999999999993 L 94 -28.999999999999993 L 94 -14.6870002746582 L 97 -14.6870002746582 L 97 -3.812000036239623 L 94 -3.812000036239623 L 94 1.1102230246251565e-16 L 94 7.063000202178953 L 97 7.063000202178953 L 97 17.937999725341793 L 94 17.937999725341793 L 94 28.81299972534179 L 97 28.81299972534179 L 97 39.68799972534179 L 94 39.68799972534179 L 94 53.999999999999986 L 80.31300354003906 53.999999999999986 L 80.31300354003906 50.999999999999986 L 69.43800354003906 50.999999999999986 L 69.43800354003906 53.999999999999986 L 65.53600311279297 53.999999999999986 L 58.5629997253418 53.999999999999986 L 58.5629997253418 50.999999999999986 L 47.6879997253418 50.999999999999986 L 47.6879997253418 53.999999999999986 L 34 53.999999999999986 L 34 39.68799972534179 L 32.768001556396484 39.68799972534179 L 31 39.68799972534179 L 31 32.76800155639648 L 31 28.81299972534179 L 32.768001556396484 28.81299972534179 L 34 28.81299972534179 L 34 17.937999725341793 L 32.768001556396484 17.937999725341793 L 31 17.937999725341793 L 31 7.063000202178953 L 32.768001556396484 7.063000202178953 L 34 7.063000202178953 L 34 1.1102230246251565e-16 L 34 -3.812000036239623 L 32.768001556396484 -3.812000036239623 L 31 -3.812000036239623 L 31 -14.6870002746582 M 82.98699951171875 -104.07199859619138 L 83.4520034790039 -103.99900054931638 L 83.91600036621094 -104.07199859619138 L 83.96800231933594 -104.09843444824216 L 84.33499908447266 -104.28500366210935 L 84.66699981689453 -104.61799621582028 L 84.87999725341797 -105.03700256347653 L 84.9540023803711 -105.50099945068357 L 84.87999725341797 -105.9649963378906 L 84.66699981689453 -106.38400268554685 L 84.33499908447266 -106.71700286865232 L 83.96800231933594 -106.90356445312497 L 83.91600036621094 -106.93000030517575 L 83.4520034790039 -107.00299835205075 L 82.98699951171875 -106.93000030517575 L 82.56800079345703 -106.71700286865232 L 82.23600006103516 -106.38400268554685 L 82.02300262451172 -105.9649963378906 L 81.9489974975586 -105.50099945068357 L 82.02300262451172 -105.03700256347653 L 82.23600006103516 -104.61799621582028 L 82.56800079345703 -104.28500366210935 L 82.98699951171875 -104.07199859619138 M 82.98699951171875 -40.0719985961914 L 83.4520034790039 -39.998001098632805 L 83.91600036621094 -40.0719985961914 L 84.33499908447266 -40.2849998474121 L 84.66699981689453 -40.61800003051757 L 84.84085845947266 -40.95999908447265 L 84.87999725341797 -41.03699874877929 L 84.9540023803711 -41.50099945068359 L 84.87999725341797 -41.96500015258788 L 84.66699981689453 -42.3839988708496 L 84.33499908447266 -42.71699905395507 L 83.91600036621094 -42.930000305175774 L 83.4520034790039 -43.00400161743163 L 82.98699951171875 -42.930000305175774 L 82.56800079345703 -42.71699905395507 L 82.23600006103516 -42.3839988708496 L 82.02300262451172 -41.96500015258788 L 81.9489974975586 -41.50099945068359 L 82.02300262451172 -41.03699874877929 L 82.06214141845703 -40.95999908447265 L 82.23600006103516 -40.61800003051757 L 82.56800079345703 -40.2849998474121 L 82.98699951171875 -40.0719985961914 M 44.08700180053711 -104.07199859619138 L 44.551998138427734 -103.99900054931638 L 45.01599884033203 -104.07199859619138 L 45.055999755859375 -104.09233093261716 L 45.435001373291016 -104.28500366210935 L 45.766998291015625 -104.61799621582028 L 45.97999954223633 -105.03700256347653 L 46.05400085449219 -105.50099945068357 L 45.97999954223633 -105.9649963378906 L 45.766998291015625 -106.38400268554685 L 45.435001373291016 -106.71700286865232 L 45.055999755859375 -106.90966796874997 L 45.01599884033203 -106.93000030517575 L 44.551998138427734 -107.00299835205075 L 44.08700180053711 -106.93000030517575 L 43.667999267578125 -106.71700286865232 L 43.33599853515625 -106.38400268554685 L 43.12300109863281 -105.9649963378906 L 43.04899978637695 -105.50099945068357 L 43.12300109863281 -105.03700256347653 L 43.33599853515625 -104.61799621582028 L 43.667999267578125 -104.28500366210935 L 44.08700180053711 -104.07199859619138 M 44.08700180053711 -40.0719985961914 L 44.551998138427734 -39.998001098632805 L 45.01599884033203 -40.0719985961914 L 45.435001373291016 -40.2849998474121 L 45.766998291015625 -40.61800003051757 L 45.94085693359375 -40.95999908447265 L 45.97999954223633 -41.03699874877929 L 46.05400085449219 -41.50099945068359 L 45.97999954223633 -41.96500015258788 L 45.766998291015625 -42.3839988708496 L 45.435001373291016 -42.71699905395507 L 45.01599884033203 -42.930000305175774 L 44.551998138427734 -43.00400161743163 L 44.08700180053711 -42.930000305175774 L 43.667999267578125 -42.71699905395507 L 43.33599853515625 -42.3839988708496 L 43.12300109863281 -41.96500015258788 L 43.04899978637695 -41.50099945068359 L 43.12300109863281 -41.03699874877929 L 43.16214370727539 -40.95999908447265 L 43.33599853515625 -40.61800003051757 L 43.667999267578125 -40.2849998474121 L 44.08700180053711 -40.0719985961914 z"
     fill="none"
     stroke="rgb(255,0,0)"
     stroke-width="0.001mm"
     id="path1"
     style="fill:#000000;fill-opacity:1" />
</svg>
