999
"DXF R12 Output" (www.mydxf.blogspot.com)
 0 
SECTION
 2 
HEADER
 9 
$ACADVER
 1 
AC1009
 9 
$EXTMIN
 10 
 0 
 20 
 0 
 9 
$EXTMAX
 10 
 8.5 
 20 
 11 
 0 
ENDSEC
 0 
SECTION
 2 
ENTITIES
0
LINE
8
Layer 1
10
136.253700
20
127.025880
11
136.253700
21
124.026060
0
LINE
8
Layer 1
10
136.253700
20
124.026060
11
129.190560
21
124.026060
0
LINE
8
Layer 1
10
129.190560
20
124.026060
11
129.190560
21
115.026090
0
LINE
8
Layer 1
10
129.190560
20
115.026090
11
129.190560
21
110.338010
0
LINE
8
Layer 1
10
129.190560
20
110.338010
11
126.190750
21
110.338010
0
LINE
8
Layer 1
10
126.190750
20
110.338010
11
126.190750
21
99.462700
0
LINE
8
Layer 1
10
126.190750
20
99.462700
11
129.190560
21
99.462700
0
LINE
8
Layer 1
10
129.190560
20
99.462700
11
129.190560
21
88.587920
0
LINE
8
Layer 1
10
129.190560
20
88.587920
11
126.190750
21
88.587920
0
LINE
8
Layer 1
10
126.190750
20
88.587920
11
126.190750
21
82.258070
0
LINE
8
Layer 1
10
126.190750
20
82.258070
11
126.190750
21
77.713130
0
LINE
8
Layer 1
10
126.190750
20
77.713130
11
129.190560
21
77.713130
0
LINE
8
Layer 1
10
129.190560
20
77.713130
11
129.190560
21
64.026110
0
LINE
8
Layer 1
10
129.190560
20
64.026110
11
136.253700
21
64.026110
0
LINE
8
Layer 1
10
136.253700
20
64.026110
11
136.253700
21
61.025770
0
LINE
8
Layer 1
10
136.253700
20
61.025770
11
147.128490
21
61.025770
0
LINE
8
Layer 1
10
147.128490
20
61.025770
11
147.128490
21
64.026110
0
LINE
8
Layer 1
10
147.128490
20
64.026110
11
154.190590
21
64.026110
0
LINE
8
Layer 1
10
154.190590
20
64.026110
11
154.190590
21
77.713130
0
LINE
8
Layer 1
10
154.190590
20
77.713130
11
157.190410
21
77.713130
0
LINE
8
Layer 1
10
157.190410
20
77.713130
11
157.190410
21
82.258070
0
LINE
8
Layer 1
10
157.190410
20
82.258070
11
157.190410
21
88.587920
0
LINE
8
Layer 1
10
157.190410
20
88.587920
11
154.190590
21
88.587920
0
LINE
8
Layer 1
10
154.190590
20
88.587920
11
154.190590
21
99.462700
0
LINE
8
Layer 1
10
154.190590
20
99.462700
11
157.190410
21
99.462700
0
LINE
8
Layer 1
10
157.190410
20
99.462700
11
157.190410
21
110.338010
0
LINE
8
Layer 1
10
157.190410
20
110.338010
11
154.190590
21
110.338010
0
LINE
8
Layer 1
10
154.190590
20
110.338010
11
154.190590
21
115.026090
0
LINE
8
Layer 1
10
154.190590
20
115.026090
11
154.190590
21
124.026060
0
LINE
8
Layer 1
10
154.190590
20
124.026060
11
147.128490
21
124.026060
0
LINE
8
Layer 1
10
147.128490
20
124.026060
11
147.128490
21
127.025880
0
LINE
8
Layer 1
10
147.128490
20
127.025880
11
136.253700
21
127.025880
0
LINE
8
Layer 1
10
131.190960
20
139.028760
11
131.655010
21
138.954860
0
LINE
8
Layer 1
10
131.655010
20
138.954860
11
132.074110
21
138.741430
0
LINE
8
Layer 1
10
132.074110
20
138.741430
11
132.406910
21
138.408640
0
LINE
8
Layer 1
10
132.406910
20
138.408640
11
132.620330
21
137.989540
0
LINE
8
Layer 1
10
132.620330
20
137.989540
11
132.687030
21
137.569410
0
LINE
8
Layer 1
10
132.687030
20
137.569410
11
132.694030
21
137.525510
0
LINE
8
Layer 1
10
132.694030
20
137.525510
11
132.687030
21
137.481610
0
LINE
8
Layer 1
10
132.687030
20
137.481610
11
132.620330
21
137.061480
0
LINE
8
Layer 1
10
132.620330
20
137.061480
11
132.406910
21
136.642900
0
LINE
8
Layer 1
10
132.406910
20
136.642900
11
132.074110
21
136.309590
0
LINE
8
Layer 1
10
132.074110
20
136.309590
11
131.655010
21
136.096680
0
LINE
8
Layer 1
10
131.655010
20
136.096680
11
131.190960
21
136.023780
0
LINE
8
Layer 1
10
131.190960
20
136.023780
11
130.726900
21
136.096680
0
LINE
8
Layer 1
10
130.726900
20
136.096680
11
130.663300
21
136.128680
0
LINE
8
Layer 1
10
130.663300
20
136.128680
11
130.308290
21
136.309550
0
LINE
8
Layer 1
10
130.308290
20
136.309550
11
129.974970
21
136.642860
0
LINE
8
Layer 1
10
129.974970
20
136.642860
11
129.762070
21
137.061440
0
LINE
8
Layer 1
10
129.762070
20
137.061440
11
129.693370
21
137.497590
0
LINE
8
Layer 1
10
129.693370
20
137.497590
11
129.689370
21
137.525490
0
LINE
8
Layer 1
10
129.689370
20
137.525490
11
129.693370
21
137.553390
0
LINE
8
Layer 1
10
129.693370
20
137.553390
11
129.761570
21
137.989540
0
LINE
8
Layer 1
10
129.761570
20
137.989540
11
129.974480
21
138.408640
0
LINE
8
Layer 1
10
129.974480
20
138.408640
11
130.307790
21
138.741430
0
LINE
8
Layer 1
10
130.307790
20
138.741430
11
130.662810
21
138.921780
0
LINE
8
Layer 1
10
130.662810
20
138.921780
11
130.726910
21
138.954880
0
LINE
8
Layer 1
10
130.726910
20
138.954880
11
130.728910
21
138.954880
0
LINE
8
Layer 1
10
130.728910
20
138.954880
11
131.190960
21
139.028760
0
LINE
8
Layer 1
10
170.090910
20
139.029280
11
170.554960
21
138.955380
0
LINE
8
Layer 1
10
170.554960
20
138.955380
11
170.598860
21
138.933180
0
LINE
8
Layer 1
10
170.598860
20
138.933180
11
170.973510
21
138.742500
0
LINE
8
Layer 1
10
170.973510
20
138.742500
11
171.306830
21
138.409180
0
LINE
8
Layer 1
10
171.306830
20
138.409180
11
171.519730
21
137.990600
0
LINE
8
Layer 1
10
171.519730
20
137.990600
11
171.589030
21
137.554460
0
LINE
8
Layer 1
10
171.589030
20
137.554460
11
171.589550
21
137.554460
0
LINE
8
Layer 1
10
171.589550
20
137.554460
11
171.593550
21
137.526560
0
LINE
8
Layer 1
10
171.593550
20
137.526560
11
171.589550
21
137.498660
0
LINE
8
Layer 1
10
171.589550
20
137.498660
11
171.519750
21
137.062520
0
LINE
8
Layer 1
10
171.519750
20
137.062520
11
171.306850
21
136.643420
0
LINE
8
Layer 1
10
171.306850
20
136.643420
11
170.973530
21
136.310620
0
LINE
8
Layer 1
10
170.973530
20
136.310620
11
170.554950
21
136.097720
0
LINE
8
Layer 1
10
170.554950
20
136.097720
11
170.090900
21
136.024320
0
LINE
8
Layer 1
10
170.090900
20
136.024320
11
169.626850
21
136.097720
0
LINE
8
Layer 1
10
169.626850
20
136.097720
11
169.574650
21
136.123520
0
LINE
8
Layer 1
10
169.574650
20
136.123520
11
169.550850
21
136.135420
0
LINE
8
Layer 1
10
169.550850
20
136.135420
11
169.207720
21
136.310600
0
LINE
8
Layer 1
10
169.207720
20
136.310600
11
168.874920
21
136.643400
0
LINE
8
Layer 1
10
168.874920
20
136.643400
11
168.661500
21
137.062500
0
LINE
8
Layer 1
10
168.661500
20
137.062500
11
168.588600
21
137.526550
0
LINE
8
Layer 1
10
168.588600
20
137.526550
11
168.661500
21
137.990600
0
LINE
8
Layer 1
10
168.661500
20
137.990600
11
168.874920
21
138.409180
0
LINE
8
Layer 1
10
168.874920
20
138.409180
11
169.207720
21
138.742500
0
LINE
8
Layer 1
10
169.207720
20
138.742500
11
169.550850
21
138.917160
0
LINE
8
Layer 1
10
169.550850
20
138.917160
11
169.574650
21
138.929560
0
LINE
8
Layer 1
10
169.574650
20
138.929560
11
169.626850
21
138.955360
0
LINE
8
Layer 1
10
169.626850
20
138.955360
11
170.090910
21
139.029280
0
LINE
8
Layer 1
10
60.190641
20
144.025870
11
60.190641
21
129.713050
0
LINE
8
Layer 1
10
60.190641
20
129.713050
11
58.958675
21
129.713050
0
LINE
8
Layer 1
10
58.958675
20
129.713050
11
57.190824
21
129.713050
0
LINE
8
Layer 1
10
57.190824
20
129.713050
11
57.190824
21
118.837750
0
LINE
8
Layer 1
10
57.190824
20
118.837750
11
58.958675
21
118.837750
0
LINE
8
Layer 1
10
58.958675
20
118.837750
11
60.190641
21
118.837750
0
LINE
8
Layer 1
10
60.190641
20
118.837750
11
60.190641
21
115.026090
0
LINE
8
Layer 1
10
60.190641
20
115.026090
11
60.190641
21
107.962960
0
LINE
8
Layer 1
10
60.190641
20
107.962960
11
58.958675
21
107.962960
0
LINE
8
Layer 1
10
58.958675
20
107.962960
11
57.190824
21
107.962960
0
LINE
8
Layer 1
10
57.190824
20
107.962960
11
57.190824
21
97.088170
0
LINE
8
Layer 1
10
57.190824
20
97.088170
11
58.958675
21
97.088170
0
LINE
8
Layer 1
10
58.958675
20
97.088170
11
60.190641
21
97.088170
0
LINE
8
Layer 1
10
60.190641
20
97.088170
11
60.190641
21
86.212870
0
LINE
8
Layer 1
10
60.190641
20
86.212870
11
58.958675
21
86.212870
0
LINE
8
Layer 1
10
58.958675
20
86.212870
11
57.190824
21
86.212870
0
LINE
8
Layer 1
10
57.190824
20
86.212870
11
57.190824
21
82.258070
0
LINE
8
Layer 1
10
57.190824
20
82.258070
11
57.190824
21
75.338080
0
LINE
8
Layer 1
10
57.190824
20
75.338080
11
58.958675
21
75.338080
0
LINE
8
Layer 1
10
58.958675
20
75.338080
11
60.190641
21
75.338080
0
LINE
8
Layer 1
10
60.190641
20
75.338080
11
60.190641
21
61.025770
0
LINE
8
Layer 1
10
60.190641
20
61.025770
11
73.878695
21
61.025770
0
LINE
8
Layer 1
10
73.878695
20
61.025770
11
73.878695
21
64.026110
0
LINE
8
Layer 1
10
73.878695
20
64.026110
11
84.753483
21
64.026110
0
LINE
8
Layer 1
10
84.753483
20
64.026110
11
84.753483
21
61.025770
0
LINE
8
Layer 1
10
84.753483
20
61.025770
11
91.726701
21
61.025770
0
LINE
8
Layer 1
10
91.726701
20
61.025770
11
95.628788
21
61.025770
0
LINE
8
Layer 1
10
95.628788
20
61.025770
11
95.628788
21
64.026110
0
LINE
8
Layer 1
10
95.628788
20
64.026110
11
106.503580
21
64.026110
0
LINE
8
Layer 1
10
106.503580
20
64.026110
11
106.503580
21
61.025770
0
LINE
8
Layer 1
10
106.503580
20
61.025770
11
120.190600
21
61.025770
0
LINE
8
Layer 1
10
120.190600
20
61.025770
11
120.190600
21
75.338080
0
LINE
8
Layer 1
10
120.190600
20
75.338080
11
123.190410
21
75.338080
0
LINE
8
Layer 1
10
123.190410
20
75.338080
11
123.190410
21
86.212870
0
LINE
8
Layer 1
10
123.190410
20
86.212870
11
120.190600
21
86.212870
0
LINE
8
Layer 1
10
120.190600
20
86.212870
11
120.190600
21
97.088170
0
LINE
8
Layer 1
10
120.190600
20
97.088170
11
123.190410
21
97.088170
0
LINE
8
Layer 1
10
123.190410
20
97.088170
11
122.661250
21
107.962960
0
LINE
8
Layer 1
10
122.661250
20
107.962960
11
119.661430
21
107.962960
0
LINE
8
Layer 1
10
119.661430
20
107.962960
11
120.190600
21
115.026090
0
LINE
8
Layer 1
10
120.190600
20
115.026090
11
120.190600
21
118.837750
0
LINE
8
Layer 1
10
120.190600
20
118.837750
11
123.190410
21
118.837750
0
LINE
8
Layer 1
10
123.190410
20
118.837750
11
123.190410
21
129.713050
0
LINE
8
Layer 1
10
123.190410
20
129.713050
11
120.190600
21
129.713050
0
LINE
8
Layer 1
10
120.190600
20
129.713050
11
120.190600
21
144.025870
0
LINE
8
Layer 1
10
120.190600
20
144.025870
11
91.726701
21
144.025870
0
LINE
8
Layer 1
10
91.726701
20
144.025870
11
60.190641
21
144.025870
0
LINE
8
Layer 1
10
23.190833
20
144.025870
11
23.190833
21
129.713050
0
LINE
8
Layer 1
10
23.190833
20
129.713050
11
26.190649
21
129.713050
0
LINE
8
Layer 1
10
26.190649
20
129.713050
11
26.190649
21
118.837750
0
LINE
8
Layer 1
10
26.190649
20
118.837750
11
23.190833
21
118.837750
0
LINE
8
Layer 1
10
23.190833
20
118.837750
11
23.190833
21
115.026090
0
LINE
8
Layer 1
10
23.190833
20
115.026090
11
23.190833
21
107.962960
0
LINE
8
Layer 1
10
23.190833
20
107.962960
11
26.190649
21
107.962960
0
LINE
8
Layer 1
10
26.190649
20
107.962960
11
26.190649
21
97.088170
0
LINE
8
Layer 1
10
26.190649
20
97.088170
11
23.190833
21
97.088170
0
LINE
8
Layer 1
10
23.190833
20
97.088170
11
23.190833
21
86.212870
0
LINE
8
Layer 1
10
23.190833
20
86.212870
11
26.190649
21
86.212870
0
LINE
8
Layer 1
10
26.190649
20
86.212870
11
26.190649
21
82.258070
0
LINE
8
Layer 1
10
26.190649
20
82.258070
11
26.190649
21
75.338080
0
LINE
8
Layer 1
10
26.190649
20
75.338080
11
23.190833
21
75.338080
0
LINE
8
Layer 1
10
23.190833
20
75.338080
11
23.190833
21
61.025770
0
LINE
8
Layer 1
10
23.190833
20
61.025770
11
26.190649
21
61.025770
0
LINE
8
Layer 1
10
26.190649
20
61.025770
11
33.253784
21
61.025770
0
LINE
8
Layer 1
10
33.253784
20
61.025770
11
33.253784
21
64.026110
0
LINE
8
Layer 1
10
33.253784
20
64.026110
11
44.128573
21
64.026110
0
LINE
8
Layer 1
10
44.128573
20
64.026110
11
44.128573
21
61.025770
0
LINE
8
Layer 1
10
44.128573
20
61.025770
11
51.190674
21
61.025770
0
LINE
8
Layer 1
10
51.190674
20
61.025770
11
54.190491
21
61.025770
0
LINE
8
Layer 1
10
54.190491
20
61.025770
11
54.190491
21
75.338080
0
LINE
8
Layer 1
10
54.190491
20
75.338080
11
51.190674
21
75.338080
0
LINE
8
Layer 1
10
51.190674
20
75.338080
11
51.190674
21
82.258070
0
LINE
8
Layer 1
10
51.190674
20
82.258070
11
51.190674
21
86.212870
0
LINE
8
Layer 1
10
51.190674
20
86.212870
11
54.190491
21
86.212870
0
LINE
8
Layer 1
10
54.190491
20
86.212870
11
54.190491
21
97.088170
0
LINE
8
Layer 1
10
54.190491
20
97.088170
11
51.190674
21
97.088170
0
LINE
8
Layer 1
10
51.190674
20
97.088170
11
51.190674
21
107.962960
0
LINE
8
Layer 1
10
51.190674
20
107.962960
11
54.190491
21
107.962960
0
LINE
8
Layer 1
10
54.190491
20
107.962960
11
54.190491
21
115.026090
0
LINE
8
Layer 1
10
54.190491
20
115.026090
11
54.190491
21
118.837750
0
LINE
8
Layer 1
10
54.190491
20
118.837750
11
51.190674
21
118.837750
0
LINE
8
Layer 1
10
51.190674
20
118.837750
11
51.190674
21
129.713050
0
LINE
8
Layer 1
10
51.190674
20
129.713050
11
54.190491
21
129.713050
0
LINE
8
Layer 1
10
54.190491
20
129.713050
11
54.190491
21
144.025870
0
LINE
8
Layer 1
10
54.190491
20
144.025870
11
26.190649
21
144.025870
0
LINE
8
Layer 1
10
26.190649
20
144.025870
11
23.190833
21
144.025870
0
LINE
8
Layer 1
10
70.742969
20
158.029670
11
71.207023
21
157.955770
0
LINE
8
Layer 1
10
71.207023
20
157.955770
11
71.626119
21
157.742870
0
LINE
8
Layer 1
10
71.626119
20
157.742870
11
71.957882
21
157.409550
0
LINE
8
Layer 1
10
71.957882
20
157.409550
11
72.171305
21
156.990460
0
LINE
8
Layer 1
10
72.171305
20
156.990460
11
72.245205
21
156.526400
0
LINE
8
Layer 1
10
72.245205
20
156.526400
11
72.171305
21
156.062870
0
LINE
8
Layer 1
10
72.171305
20
156.062870
11
72.132035
21
155.985870
0
LINE
8
Layer 1
10
72.132035
20
155.985870
11
71.957886
21
155.643770
0
LINE
8
Layer 1
10
71.957886
20
155.643770
11
71.626123
21
155.310460
0
LINE
8
Layer 1
10
71.626123
20
155.310460
11
71.207027
21
155.097550
0
LINE
8
Layer 1
10
71.207027
20
155.097550
11
70.742973
21
155.023650
0
LINE
8
Layer 1
10
70.742973
20
155.023650
11
70.277885
21
155.097550
0
LINE
8
Layer 1
10
70.277885
20
155.097550
11
69.859306
21
155.310460
0
LINE
8
Layer 1
10
69.859306
20
155.310460
11
69.527026
21
155.643770
0
LINE
8
Layer 1
10
69.527026
20
155.643770
11
69.353393
21
155.985870
0
LINE
8
Layer 1
10
69.353393
20
155.985870
11
69.314123
21
156.062870
0
LINE
8
Layer 1
10
69.314123
20
156.062870
11
69.240223
21
156.526400
0
LINE
8
Layer 1
10
69.240223
20
156.526400
11
69.314123
21
156.990460
0
LINE
8
Layer 1
10
69.314123
20
156.990460
11
69.527030
21
157.409550
0
LINE
8
Layer 1
10
69.527030
20
157.409550
11
69.859310
21
157.742870
0
LINE
8
Layer 1
10
69.859310
20
157.742870
11
70.277889
21
157.955770
0
LINE
8
Layer 1
10
70.277889
20
157.955770
11
70.742969
21
158.029670
0
LINE
8
Layer 1
10
109.643440
20
158.030190
11
110.106970
21
157.955790
0
LINE
8
Layer 1
10
110.106970
20
157.955790
11
110.526070
21
157.742890
0
LINE
8
Layer 1
10
110.526070
20
157.742890
11
110.858350
21
157.410090
0
LINE
8
Layer 1
10
110.858350
20
157.410090
11
111.071260
21
156.990990
0
LINE
8
Layer 1
10
111.071260
20
156.990990
11
111.145160
21
156.526940
0
LINE
8
Layer 1
10
111.145160
20
156.526940
11
111.071260
21
156.062890
0
LINE
8
Layer 1
10
111.071260
20
156.062890
11
111.031960
21
155.985890
0
LINE
8
Layer 1
10
111.031960
20
155.985890
11
110.858330
21
155.644310
0
LINE
8
Layer 1
10
110.858330
20
155.644310
11
110.526050
21
155.310990
0
LINE
8
Layer 1
10
110.526050
20
155.310990
11
110.106950
21
155.098090
0
LINE
8
Layer 1
10
110.106950
20
155.098090
11
109.643420
21
155.024190
0
LINE
8
Layer 1
10
109.643420
20
155.024190
11
109.178330
21
155.098090
0
LINE
8
Layer 1
10
109.178330
20
155.098090
11
108.759230
21
155.310990
0
LINE
8
Layer 1
10
108.759230
20
155.310990
11
108.426950
21
155.644310
0
LINE
8
Layer 1
10
108.426950
20
155.644310
11
108.253320
21
155.985890
0
LINE
8
Layer 1
10
108.253320
20
155.985890
11
108.214020
21
156.062890
0
LINE
8
Layer 1
10
108.214020
20
156.062890
11
108.140120
21
156.526940
0
LINE
8
Layer 1
10
108.140120
20
156.526940
11
108.214020
21
156.990990
0
LINE
8
Layer 1
10
108.214020
20
156.990990
11
108.426920
21
157.410090
0
LINE
8
Layer 1
10
108.426920
20
157.410090
11
108.759200
21
157.742890
0
LINE
8
Layer 1
10
108.759200
20
157.742890
11
109.178300
21
157.955790
0
LINE
8
Layer 1
10
109.178300
20
157.955790
11
109.643440
21
158.030190
0
LINE
8
Layer 1
10
137.164240
20
172.323890
11
137.165240
21
172.323890
0
LINE
8
Layer 1
10
137.165240
20
172.323890
11
137.627230
21
172.249990
0
LINE
8
Layer 1
10
137.627230
20
172.249990
11
138.046320
21
172.037080
0
LINE
8
Layer 1
10
138.046320
20
172.037080
11
138.377050
21
171.704810
0
LINE
8
Layer 1
10
138.377050
20
171.704810
11
138.589960
21
171.289840
0
LINE
8
Layer 1
10
138.589960
20
171.289840
11
138.590960
21
171.286840
0
LINE
8
Layer 1
10
138.590960
20
171.286840
11
138.663860
21
170.822790
0
LINE
8
Layer 1
10
138.663860
20
170.822790
11
138.590960
21
170.359770
0
LINE
8
Layer 1
10
138.590960
20
170.359770
11
138.377020
21
169.940670
0
LINE
8
Layer 1
10
138.377020
20
169.940670
11
138.046290
21
169.608910
0
LINE
8
Layer 1
10
138.046290
20
169.608910
11
137.627200
21
169.396000
0
LINE
8
Layer 1
10
137.627200
20
169.396000
11
137.164180
21
169.322600
0
LINE
8
Layer 1
10
137.164180
20
169.322600
11
136.807090
21
169.378900
0
LINE
8
Layer 1
10
136.807090
20
169.378900
11
136.783290
21
169.382900
0
LINE
8
Layer 1
10
136.783290
20
169.382900
11
136.700090
21
169.396300
0
LINE
8
Layer 1
10
136.700090
20
169.396300
11
136.282030
21
169.609210
0
LINE
8
Layer 1
10
136.282030
20
169.609210
11
135.950270
21
169.941490
0
LINE
8
Layer 1
10
135.950270
20
169.941490
11
135.736840
21
170.360070
0
LINE
8
Layer 1
10
135.736840
20
170.360070
11
135.663940
21
170.823090
0
LINE
8
Layer 1
10
135.663940
20
170.823090
11
135.736840
21
171.287140
0
LINE
8
Layer 1
10
135.736840
20
171.287140
11
135.737840
21
171.290140
0
LINE
8
Layer 1
10
135.737840
20
171.290140
11
135.950230
21
171.705110
0
LINE
8
Layer 1
10
135.950230
20
171.705110
11
136.281990
21
172.037380
0
LINE
8
Layer 1
10
136.281990
20
172.037380
11
136.700050
21
172.250290
0
LINE
8
Layer 1
10
136.700050
20
172.250290
11
136.783250
21
172.263190
0
LINE
8
Layer 1
10
136.783250
20
172.263190
11
136.807050
21
172.267190
0
LINE
8
Layer 1
10
136.807050
20
172.267190
11
137.164240
21
172.323890
0
LINE
8
Layer 1
10
164.117630
20
172.324410
11
164.581690
21
172.250510
0
LINE
8
Layer 1
10
164.581690
20
172.250510
11
164.999750
21
172.037600
0
LINE
8
Layer 1
10
164.999750
20
172.037600
11
165.331510
21
171.705320
0
LINE
8
Layer 1
10
165.331510
20
171.705320
11
165.454500
21
171.464510
0
LINE
8
Layer 1
10
165.454500
20
171.464510
11
165.543900
21
171.290360
0
LINE
8
Layer 1
10
165.543900
20
171.290360
11
165.544900
21
171.287360
0
LINE
8
Layer 1
10
165.544900
20
171.287360
11
165.618800
21
170.823310
0
LINE
8
Layer 1
10
165.618800
20
170.823310
11
165.544900
21
170.360280
0
LINE
8
Layer 1
10
165.544900
20
170.360280
11
165.454500
21
170.183550
0
LINE
8
Layer 1
10
165.454500
20
170.183550
11
165.331510
21
169.941710
0
LINE
8
Layer 1
10
165.331510
20
169.941710
11
164.999750
21
169.609430
0
LINE
8
Layer 1
10
164.999750
20
169.609430
11
164.581690
21
169.396520
0
LINE
8
Layer 1
10
164.581690
20
169.396520
11
164.117630
21
169.323620
0
LINE
8
Layer 1
10
164.117630
20
169.323620
11
163.654610
21
169.396520
0
LINE
8
Layer 1
10
163.654610
20
169.396520
11
163.235510
21
169.609430
0
LINE
8
Layer 1
10
163.235510
20
169.609430
11
162.904790
21
169.941710
0
LINE
8
Layer 1
10
162.904790
20
169.941710
11
162.709970
21
170.322560
0
LINE
8
Layer 1
10
162.709970
20
170.322560
11
162.690870
21
170.360260
0
LINE
8
Layer 1
10
162.690870
20
170.360260
11
162.617470
21
170.823290
0
LINE
8
Layer 1
10
162.617470
20
170.823290
11
162.690870
21
171.287340
0
LINE
8
Layer 1
10
162.690870
20
171.287340
11
162.691870
21
171.290340
0
LINE
8
Layer 1
10
162.691870
20
171.290340
11
162.904780
21
171.705300
0
LINE
8
Layer 1
10
162.904780
20
171.705300
11
163.235500
21
172.037580
0
LINE
8
Layer 1
10
163.235500
20
172.037580
11
163.654600
21
172.250490
0
LINE
8
Layer 1
10
163.654600
20
172.250490
11
164.117630
21
172.324410
0
LINE
8
Layer 1
10
163.916610
20
191.329450
11
164.380660
21
191.255550
0
LINE
8
Layer 1
10
164.380660
20
191.255550
11
164.798730
21
191.042130
0
LINE
8
Layer 1
10
164.798730
20
191.042130
11
165.038510
21
190.802350
0
LINE
8
Layer 1
10
165.038510
20
190.802350
11
165.130510
21
190.710350
0
LINE
8
Layer 1
10
165.130510
20
190.710350
11
165.343930
21
190.292290
0
LINE
8
Layer 1
10
165.343930
20
190.292290
11
165.416830
21
189.828240
0
LINE
8
Layer 1
10
165.416830
20
189.828240
11
165.399730
21
189.722300
0
LINE
8
Layer 1
10
165.399730
20
189.722300
11
165.343930
21
189.365220
0
LINE
8
Layer 1
10
165.343930
20
189.365220
11
165.341930
21
189.361220
0
LINE
8
Layer 1
10
165.341930
20
189.361220
11
165.130570
21
188.946260
0
LINE
8
Layer 1
10
165.130570
20
188.946260
11
164.938850
21
188.754020
0
LINE
8
Layer 1
10
164.938850
20
188.754020
11
164.798810
21
188.613980
0
LINE
8
Layer 1
10
164.798810
20
188.613980
11
164.380740
21
188.401070
0
LINE
8
Layer 1
10
164.380740
20
188.401070
11
163.916690
21
188.328170
0
LINE
8
Layer 1
10
163.916690
20
188.328170
11
163.453670
21
188.401070
0
LINE
8
Layer 1
10
163.453670
20
188.401070
11
163.034570
21
188.613980
0
LINE
8
Layer 1
10
163.034570
20
188.613980
11
162.894530
21
188.754020
0
LINE
8
Layer 1
10
162.894530
20
188.754020
11
162.702810
21
188.946260
0
LINE
8
Layer 1
10
162.702810
20
188.946260
11
162.616510
21
189.115240
0
LINE
8
Layer 1
10
162.616510
20
189.115240
11
162.489900
21
189.364840
0
LINE
8
Layer 1
10
162.489900
20
189.364840
11
162.433600
21
189.721920
0
LINE
8
Layer 1
10
162.433600
20
189.721920
11
162.416500
21
189.827860
0
LINE
8
Layer 1
10
162.416500
20
189.827860
11
162.417020
21
189.828860
0
LINE
8
Layer 1
10
162.417020
20
189.828860
11
162.489920
21
190.291880
0
LINE
8
Layer 1
10
162.489920
20
190.291880
11
162.616530
21
190.540970
0
LINE
8
Layer 1
10
162.616530
20
190.540970
11
162.617050
21
190.541480
0
LINE
8
Layer 1
10
162.617050
20
190.541480
11
162.702850
21
190.710460
0
LINE
8
Layer 1
10
162.702850
20
190.710460
11
162.703370
21
190.710980
0
LINE
8
Layer 1
10
162.703370
20
190.710980
11
162.794870
21
190.802480
0
LINE
8
Layer 1
10
162.794870
20
190.802480
11
163.034650
21
191.042260
0
LINE
8
Layer 1
10
163.034650
20
191.042260
11
163.453750
21
191.255680
0
LINE
8
Layer 1
10
163.453750
20
191.255680
11
163.916610
21
191.329450
0
LINE
8
Layer 1
10
137.162690
20
191.329450
11
137.163200
21
191.329450
0
LINE
8
Layer 1
10
137.163200
20
191.329450
11
137.625710
21
191.255550
0
LINE
8
Layer 1
10
137.625710
20
191.255550
11
138.044290
21
191.042640
0
LINE
8
Layer 1
10
138.044290
20
191.042640
11
138.375530
21
190.710360
0
LINE
8
Layer 1
10
138.375530
20
190.710360
11
138.589470
21
190.292300
0
LINE
8
Layer 1
10
138.589470
20
190.292300
11
138.662370
21
189.829800
0
LINE
8
Layer 1
10
138.662370
20
189.829800
11
138.662370
21
189.828800
0
LINE
8
Layer 1
10
138.662370
20
189.828800
11
138.645270
21
189.722870
0
LINE
8
Layer 1
10
138.645270
20
189.722870
11
138.645270
21
189.722350
0
LINE
8
Layer 1
10
138.645270
20
189.722350
11
138.589470
21
189.365270
0
LINE
8
Layer 1
10
138.589470
20
189.365270
11
138.375530
21
188.946690
0
LINE
8
Layer 1
10
138.375530
20
188.946690
11
138.183810
21
188.754450
0
LINE
8
Layer 1
10
138.183810
20
188.754450
11
138.044290
21
188.614410
0
LINE
8
Layer 1
10
138.044290
20
188.614410
11
137.625710
21
188.401500
0
LINE
8
Layer 1
10
137.625710
20
188.401500
11
137.162690
21
188.328600
0
LINE
8
Layer 1
10
137.162690
20
188.328600
11
136.805600
21
188.384400
0
LINE
8
Layer 1
10
136.805600
20
188.384400
11
136.698630
21
188.401400
0
LINE
8
Layer 1
10
136.698630
20
188.401400
11
136.280570
21
188.614310
0
LINE
8
Layer 1
10
136.280570
20
188.614310
11
136.140530
21
188.754350
0
LINE
8
Layer 1
10
136.140530
20
188.754350
11
135.948290
21
188.946590
0
LINE
8
Layer 1
10
135.948290
20
188.946590
11
135.735380
21
189.365170
0
LINE
8
Layer 1
10
135.735380
20
189.365170
11
135.679580
21
189.722250
0
LINE
8
Layer 1
10
135.679580
20
189.722250
11
135.662480
21
189.828190
0
LINE
8
Layer 1
10
135.662480
20
189.828190
11
135.662480
21
189.829190
0
LINE
8
Layer 1
10
135.662480
20
189.829190
11
135.735380
21
190.292210
0
LINE
8
Layer 1
10
135.735380
20
190.292210
11
135.948290
21
190.710270
0
LINE
8
Layer 1
10
135.948290
20
190.710270
11
136.280570
21
191.042040
0
LINE
8
Layer 1
10
136.280570
20
191.042040
11
136.698630
21
191.254940
0
LINE
8
Layer 1
10
136.698630
20
191.254940
11
136.781330
21
191.268340
0
LINE
8
Layer 1
10
136.781330
20
191.268340
11
136.805630
21
191.272340
0
LINE
8
Layer 1
10
136.805630
20
191.272340
11
137.162690
21
191.329450
0
LINE
8
Layer 1
10
169.488360
20
195.929170
11
169.550360
21
195.929170
0
LINE
8
Layer 1
10
169.550360
20
195.929170
11
171.892340
21
195.929170
0
LINE
8
Layer 1
10
171.892340
20
195.929170
11
171.939340
21
195.914670
0
LINE
8
Layer 1
10
171.939340
20
195.914670
11
171.985340
21
195.872770
0
LINE
8
Layer 1
10
171.985340
20
195.872770
11
171.989340
21
195.865770
0
LINE
8
Layer 1
10
171.989340
20
195.865770
11
172.028640
21
195.804770
0
LINE
8
Layer 1
10
172.028640
20
195.804770
11
172.043140
21
195.771670
0
LINE
8
Layer 1
10
172.043140
20
195.771670
11
172.069540
21
195.712770
0
LINE
8
Layer 1
10
172.069540
20
195.712770
11
172.104640
21
195.596500
0
LINE
8
Layer 1
10
172.104640
20
195.596500
11
172.135640
21
195.461620
0
LINE
8
Layer 1
10
172.135640
20
195.461620
11
172.160440
21
195.310730
0
LINE
8
Layer 1
10
172.160440
20
195.310730
11
172.178540
21
195.146910
0
LINE
8
Layer 1
10
172.178540
20
195.146910
11
172.189440
21
194.974830
0
LINE
8
Layer 1
10
172.189440
20
194.974830
11
172.193440
21
194.798100
0
LINE
8
Layer 1
10
172.193440
20
194.798100
11
172.193440
21
192.849890
0
LINE
8
Layer 1
10
172.193440
20
192.849890
11
172.193440
21
188.754020
0
LINE
8
Layer 1
10
172.193440
20
188.754020
11
172.193440
21
185.754200
0
LINE
8
Layer 1
10
172.193440
20
185.754200
11
172.190440
21
185.626050
0
LINE
8
Layer 1
10
172.190440
20
185.626050
11
172.189440
21
185.576950
0
LINE
8
Layer 1
10
172.189440
20
185.576950
11
172.189440
21
185.572950
0
LINE
8
Layer 1
10
172.189440
20
185.572950
11
172.178540
21
185.405000
0
LINE
8
Layer 1
10
172.178540
20
185.405000
11
172.160440
21
185.240670
0
LINE
8
Layer 1
10
172.160440
20
185.240670
11
172.135640
21
185.089770
0
LINE
8
Layer 1
10
172.135640
20
185.089770
11
172.104640
21
184.954900
0
LINE
8
Layer 1
10
172.104640
20
184.954900
11
172.069540
21
184.838630
0
LINE
8
Layer 1
10
172.069540
20
184.838630
11
172.028740
21
184.746630
0
LINE
8
Layer 1
10
172.028740
20
184.746630
11
171.985840
21
184.678930
0
LINE
8
Layer 1
10
171.985840
20
184.678930
11
171.962540
21
184.657730
0
LINE
8
Layer 1
10
171.962540
20
184.657730
11
171.939840
21
184.636530
0
LINE
8
Layer 1
10
171.939840
20
184.636530
11
171.892840
21
184.623630
0
LINE
8
Layer 1
10
171.892840
20
184.623630
11
169.488850
21
184.623630
0
LINE
8
Layer 1
10
169.488850
20
184.623630
11
169.441850
21
184.636530
0
LINE
8
Layer 1
10
169.441850
20
184.636530
11
169.418650
21
184.657730
0
LINE
8
Layer 1
10
169.418650
20
184.657730
11
169.395950
21
184.678930
0
LINE
8
Layer 1
10
169.395950
20
184.678930
11
169.352550
21
184.746630
0
LINE
8
Layer 1
10
169.352550
20
184.746630
11
169.311750
21
184.838630
0
LINE
8
Layer 1
10
169.311750
20
184.838630
11
169.276650
21
184.954900
0
LINE
8
Layer 1
10
169.276650
20
184.954900
11
169.245650
21
185.089770
0
LINE
8
Layer 1
10
169.245650
20
185.089770
11
169.220850
21
185.240670
0
LINE
8
Layer 1
10
169.220850
20
185.240670
11
169.202750
21
185.405000
0
LINE
8
Layer 1
10
169.202750
20
185.405000
11
169.191950
21
185.576570
0
LINE
8
Layer 1
10
169.191950
20
185.576570
11
169.190950
21
185.625670
0
LINE
8
Layer 1
10
169.190950
20
185.625670
11
169.188950
21
185.753830
0
LINE
8
Layer 1
10
169.188950
20
185.753830
11
169.188950
21
188.753640
0
LINE
8
Layer 1
10
169.188950
20
188.753640
11
169.188950
21
192.850030
0
LINE
8
Layer 1
10
169.188950
20
192.850030
11
169.188950
21
194.797720
0
LINE
8
Layer 1
10
169.188950
20
194.797720
11
169.191950
21
194.974970
0
LINE
8
Layer 1
10
169.191950
20
194.974970
11
169.202750
21
195.146540
0
LINE
8
Layer 1
10
169.202750
20
195.146540
11
169.220850
21
195.310870
0
LINE
8
Layer 1
10
169.220850
20
195.310870
11
169.245650
21
195.461760
0
LINE
8
Layer 1
10
169.245650
20
195.461760
11
169.276650
21
195.596640
0
LINE
8
Layer 1
10
169.276650
20
195.596640
11
169.311750
21
195.712910
0
LINE
8
Layer 1
10
169.311750
20
195.712910
11
169.352550
21
195.804910
0
LINE
8
Layer 1
10
169.352550
20
195.804910
11
169.391850
21
195.865910
0
LINE
8
Layer 1
10
169.391850
20
195.865910
11
169.395850
21
195.872910
0
LINE
8
Layer 1
10
169.395850
20
195.872910
11
169.396850
21
195.873910
0
LINE
8
Layer 1
10
169.396850
20
195.873910
11
169.441250
21
195.914710
0
LINE
8
Layer 1
10
169.441250
20
195.914710
11
169.488360
21
195.929170
0
LINE
8
Layer 1
10
170.089880
20
203.028992
11
170.553410
21
202.955092
0
LINE
8
Layer 1
10
170.553410
20
202.955092
11
170.972510
21
202.741669
0
LINE
8
Layer 1
10
170.972510
20
202.741669
11
171.305820
21
202.408873
0
LINE
8
Layer 1
10
171.305820
20
202.408873
11
171.508390
21
202.009930
0
LINE
8
Layer 1
10
171.508390
20
202.009930
11
171.518690
21
201.989780
0
LINE
8
Layer 1
10
171.518690
20
201.989780
11
171.592590
21
201.525725
0
LINE
8
Layer 1
10
171.592590
20
201.525725
11
171.518690
21
201.061671
0
LINE
8
Layer 1
10
171.518690
20
201.061671
11
171.508390
21
201.042031
0
LINE
8
Layer 1
10
171.508390
20
201.042031
11
171.479490
21
200.985701
0
LINE
8
Layer 1
10
171.479490
20
200.985701
11
171.305340
21
200.642569
0
LINE
8
Layer 1
10
171.305340
20
200.642569
11
171.301340
21
200.638969
0
LINE
8
Layer 1
10
171.301340
20
200.638969
11
170.972160
21
200.309790
0
LINE
8
Layer 1
10
170.972160
20
200.309790
11
170.553580
21
200.096883
0
LINE
8
Layer 1
10
170.553580
20
200.096883
11
170.089530
21
200.024023
0
LINE
8
Layer 1
10
170.089530
20
200.024023
11
169.625470
21
200.096883
0
LINE
8
Layer 1
10
169.625470
20
200.096883
11
169.573270
21
200.122723
0
LINE
8
Layer 1
10
169.573270
20
200.122723
11
169.206370
21
200.309792
0
LINE
8
Layer 1
10
169.206370
20
200.309792
11
168.873570
21
200.643105
0
LINE
8
Layer 1
10
168.873570
20
200.643105
11
168.670480
21
201.042047
0
LINE
8
Layer 1
10
168.670480
20
201.042047
11
168.660180
21
201.061687
0
LINE
8
Layer 1
10
168.660180
20
201.061687
11
168.587280
21
201.525741
0
LINE
8
Layer 1
10
168.587280
20
201.525741
11
168.660180
21
201.989796
0
LINE
8
Layer 1
10
168.660180
20
201.989796
11
168.670480
21
202.009946
0
LINE
8
Layer 1
10
168.670480
20
202.009946
11
168.873050
21
202.408889
0
LINE
8
Layer 1
10
168.873050
20
202.408889
11
169.206370
21
202.741685
0
LINE
8
Layer 1
10
169.206370
20
202.741685
11
169.549500
21
202.916868
0
LINE
8
Layer 1
10
169.549500
20
202.916868
11
169.573300
21
202.928748
0
LINE
8
Layer 1
10
169.573300
20
202.928748
11
169.625500
21
202.955108
0
LINE
8
Layer 1
10
169.625500
20
202.955108
11
170.089880
21
203.028992
0
LINE
8
Layer 1
10
131.189930
20
203.029508
11
131.653980
21
202.955098
0
LINE
8
Layer 1
10
131.653980
20
202.955098
11
132.072560
21
202.742192
0
LINE
8
Layer 1
10
132.072560
20
202.742192
11
132.405870
21
202.409395
0
LINE
8
Layer 1
10
132.405870
20
202.409395
11
132.608960
21
202.010453
0
LINE
8
Layer 1
10
132.608960
20
202.010453
11
132.618960
21
201.990303
0
LINE
8
Layer 1
10
132.618960
20
201.990303
11
132.686160
21
201.570174
0
LINE
8
Layer 1
10
132.686160
20
201.570174
11
132.693160
21
201.526244
0
LINE
8
Layer 1
10
132.693160
20
201.526244
11
132.686160
21
201.482314
0
LINE
8
Layer 1
10
132.686160
20
201.482314
11
132.618960
21
201.062185
0
LINE
8
Layer 1
10
132.618960
20
201.062185
11
132.608660
21
201.042545
0
LINE
8
Layer 1
10
132.608660
20
201.042545
11
132.579760
21
200.986735
0
LINE
8
Layer 1
10
132.579760
20
200.986735
11
132.579760
21
200.986218
0
LINE
8
Layer 1
10
132.579760
20
200.986218
11
132.405610
21
200.643604
0
LINE
8
Layer 1
10
132.405610
20
200.643604
11
132.072820
21
200.310807
0
LINE
8
Layer 1
10
132.072820
20
200.310807
11
131.653720
21
200.097384
0
LINE
8
Layer 1
10
131.653720
20
200.097384
11
131.189670
21
200.024524
0
LINE
8
Layer 1
10
131.189670
20
200.024524
11
130.725610
21
200.097384
0
LINE
8
Layer 1
10
130.725610
20
200.097384
11
130.661510
21
200.130454
0
LINE
8
Layer 1
10
130.661510
20
200.130454
11
130.306490
21
200.310804
0
LINE
8
Layer 1
10
130.306490
20
200.310804
11
130.300490
21
200.316504
0
LINE
8
Layer 1
10
130.300490
20
200.316504
11
129.973900
21
200.643099
0
LINE
8
Layer 1
10
129.973900
20
200.643099
11
129.799750
21
200.986230
0
LINE
8
Layer 1
10
129.799750
20
200.986230
11
129.770850
21
201.042560
0
LINE
8
Layer 1
10
129.770850
20
201.042560
11
129.760550
21
201.062200
0
LINE
8
Layer 1
10
129.760550
20
201.062200
11
129.687650
21
201.526254
0
LINE
8
Layer 1
10
129.687650
20
201.526254
11
129.760550
21
201.990308
0
LINE
8
Layer 1
10
129.760550
20
201.990308
11
129.770850
21
202.010458
0
LINE
8
Layer 1
10
129.770850
20
202.010458
11
129.973940
21
202.409400
0
LINE
8
Layer 1
10
129.973940
20
202.409400
11
130.306730
21
202.742197
0
LINE
8
Layer 1
10
130.306730
20
202.742197
11
130.637460
21
202.911178
0
LINE
8
Layer 1
10
130.637460
20
202.911178
11
130.661760
21
202.923578
0
LINE
8
Layer 1
10
130.661760
20
202.923578
11
130.725860
21
202.955098
0
LINE
8
Layer 1
10
130.725860
20
202.955098
11
131.189930
21
203.029508
0
LINE
8
Layer 1
10
131.879810
20
205.626766
11
131.686020
21
205.604026
0
LINE
8
Layer 1
10
131.686020
20
205.604026
11
131.146000
21
205.537876
0
LINE
8
Layer 1
10
131.146000
20
205.537876
11
130.661790
21
205.359076
0
LINE
8
Layer 1
10
130.661790
20
205.359076
11
130.430800
21
205.273806
0
LINE
8
Layer 1
10
130.430800
20
205.273806
11
130.428800
21
205.272806
0
LINE
8
Layer 1
10
130.428800
20
205.272806
11
130.218990
21
205.138964
0
LINE
8
Layer 1
10
130.218990
20
205.138964
11
129.750810
21
204.839758
0
LINE
8
Layer 1
10
129.750810
20
204.839758
11
129.637640
21
204.733821
0
LINE
8
Layer 1
10
129.637640
20
204.733821
11
129.122420
21
204.248063
0
LINE
8
Layer 1
10
129.122420
20
204.248063
11
128.978760
21
204.058927
0
LINE
8
Layer 1
10
128.978760
20
204.058927
11
128.613410
21
203.577819
0
LINE
8
Layer 1
10
128.613410
20
203.577819
11
128.589610
21
203.546299
0
LINE
8
Layer 1
10
128.589610
20
203.546299
11
128.563810
21
203.512189
0
LINE
8
Layer 1
10
128.563810
20
203.512189
11
128.085800
21
202.651260
0
LINE
8
Layer 1
10
128.085800
20
202.651260
11
127.830520
21
202.010989
0
LINE
8
Layer 1
10
127.830520
20
202.010989
11
127.700810
21
201.684911
0
LINE
8
Layer 1
10
127.700810
20
201.684911
11
127.700300
21
201.684394
0
LINE
8
Layer 1
10
127.700300
20
201.684394
11
127.528730
21
201.043089
0
LINE
8
Layer 1
10
127.528730
20
201.043089
11
127.513730
21
200.986759
0
LINE
8
Layer 1
10
127.513730
20
200.986759
11
127.421730
21
200.646211
0
LINE
8
Layer 1
10
127.421730
20
200.646211
11
127.419730
21
200.637911
0
LINE
8
Layer 1
10
127.419730
20
200.637911
11
127.314830
21
199.963017
0
LINE
8
Layer 1
10
127.314830
20
199.963017
11
127.247630
21
199.536170
0
LINE
8
Layer 1
10
127.247630
20
199.536170
11
127.216630
21
198.939307
0
LINE
8
Layer 1
10
127.216630
20
198.939307
11
127.189730
21
198.407040
0
LINE
8
Layer 1
10
127.189730
20
198.407040
11
127.189730
21
196.947180
0
LINE
8
Layer 1
10
127.189730
20
196.947180
11
127.189730
21
188.754920
0
LINE
8
Layer 1
10
127.189730
20
188.754920
11
127.189730
21
183.096870
0
LINE
8
Layer 1
10
127.189730
20
183.096870
11
127.189730
21
180.563170
0
LINE
8
Layer 1
10
127.189730
20
180.563170
11
127.189730
21
172.370900
0
LINE
8
Layer 1
10
127.189730
20
172.370900
11
127.189730
21
166.429150
0
LINE
8
Layer 1
10
127.189730
20
166.429150
11
132.686040
21
166.429150
0
LINE
8
Layer 1
10
132.686040
20
166.429150
11
138.241770
21
166.429150
0
LINE
8
Layer 1
10
138.241770
20
166.429150
11
138.468630
21
166.400250
0
LINE
8
Layer 1
10
138.468630
20
166.400250
11
138.689810
21
166.311850
0
LINE
8
Layer 1
10
138.689810
20
166.311850
11
138.900650
21
166.168190
0
LINE
8
Layer 1
10
138.900650
20
166.168190
11
139.094950
21
165.971310
0
LINE
8
Layer 1
10
139.094950
20
165.971310
11
139.268070
21
165.725840
0
LINE
8
Layer 1
10
139.268070
20
165.725840
11
139.414830
21
165.440070
0
LINE
8
Layer 1
10
139.414830
20
165.440070
11
139.533680
21
165.119160
0
LINE
8
Layer 1
10
139.533680
20
165.119160
11
139.622080
21
164.770860
0
LINE
8
Layer 1
10
139.622080
20
164.770860
11
139.674780
21
164.404990
0
LINE
8
Layer 1
10
139.674780
20
164.404990
11
139.685680
21
164.179170
0
LINE
8
Layer 1
10
139.685680
20
164.179170
11
139.692680
21
164.029310
0
LINE
8
Layer 1
10
139.692680
20
164.029310
11
139.692680
21
161.339030
0
LINE
8
Layer 1
10
139.692680
20
161.339030
11
139.692680
21
147.795150
0
LINE
8
Layer 1
10
139.692680
20
147.795150
11
139.692680
21
144.825310
0
LINE
8
Layer 1
10
139.692680
20
144.825310
11
139.674580
21
144.449100
0
LINE
8
Layer 1
10
139.674580
20
144.449100
11
139.621380
21
144.083240
0
LINE
8
Layer 1
10
139.621380
20
144.083240
11
139.533480
21
143.734940
0
LINE
8
Layer 1
10
139.533480
20
143.734940
11
139.414630
21
143.414030
0
LINE
8
Layer 1
10
139.414630
20
143.414030
11
139.267350
21
143.128260
0
LINE
8
Layer 1
10
139.267350
20
143.128260
11
139.094230
21
142.883310
0
LINE
8
Layer 1
10
139.094230
20
142.883310
11
138.900450
21
142.685900
0
LINE
8
Layer 1
10
138.900450
20
142.685900
11
138.802250
21
142.619200
0
LINE
8
Layer 1
10
138.802250
20
142.619200
11
138.689600
21
142.542200
0
LINE
8
Layer 1
10
138.689600
20
142.542200
11
138.468420
21
142.453800
0
LINE
8
Layer 1
10
138.468420
20
142.453800
11
138.241560
21
142.424900
0
LINE
8
Layer 1
10
138.241560
20
142.424900
11
129.189400
21
142.424900
0
LINE
8
Layer 1
10
129.189400
20
142.424900
11
127.189520
21
142.424900
0
LINE
8
Layer 1
10
127.189520
20
142.424900
11
127.189520
21
141.013100
0
LINE
8
Layer 1
10
127.189520
20
141.013100
11
127.189520
21
140.649810
0
LINE
8
Layer 1
10
127.189520
20
140.649810
11
127.189520
21
140.646810
0
LINE
8
Layer 1
10
127.189520
20
140.646810
11
127.193520
21
140.570810
0
LINE
8
Layer 1
10
127.193520
20
140.570810
11
127.242620
21
139.602910
0
LINE
8
Layer 1
10
127.242620
20
139.602910
11
127.245620
21
139.547110
0
LINE
8
Layer 1
10
127.245620
20
139.547110
11
127.247620
21
139.517610
0
LINE
8
Layer 1
10
127.247620
20
139.517610
11
127.402650
21
138.522840
0
LINE
8
Layer 1
10
127.402650
20
138.522840
11
127.419750
21
138.415870
0
LINE
8
Layer 1
10
127.419750
20
138.415870
11
127.665730
21
137.498610
0
LINE
8
Layer 1
10
127.665730
20
137.498610
11
127.700830
21
137.368910
0
LINE
8
Layer 1
10
127.700830
20
137.368910
11
128.056880
21
136.474900
0
LINE
8
Layer 1
10
128.056880
20
136.474900
11
128.085780
21
136.403100
0
LINE
8
Layer 1
10
128.085780
20
136.403100
11
128.563790
21
135.541660
0
LINE
8
Layer 1
10
128.563790
20
135.541660
11
128.589590
21
135.507560
0
LINE
8
Layer 1
10
128.589590
20
135.507560
11
128.590100
21
135.507040
0
LINE
8
Layer 1
10
128.590100
20
135.507040
11
128.610800
21
135.479640
0
LINE
8
Layer 1
10
128.610800
20
135.479640
11
128.613800
21
135.475640
0
LINE
8
Layer 1
10
128.613800
20
135.475640
11
128.632900
21
135.450840
0
LINE
8
Layer 1
10
128.632900
20
135.450840
11
129.122790
21
134.805920
0
LINE
8
Layer 1
10
129.122790
20
134.805920
11
129.189990
21
134.742320
0
LINE
8
Layer 1
10
129.189990
20
134.742320
11
129.524850
21
134.426580
0
LINE
8
Layer 1
10
129.524850
20
134.426580
11
129.750680
21
134.213670
0
LINE
8
Layer 1
10
129.750680
20
134.213670
11
130.429190
21
133.780630
0
LINE
8
Layer 1
10
130.429190
20
133.780630
11
130.431190
21
133.779630
0
LINE
8
Layer 1
10
130.431190
20
133.779630
11
130.662180
21
133.694830
0
LINE
8
Layer 1
10
130.662180
20
133.694830
11
131.146390
21
133.515520
0
LINE
8
Layer 1
10
131.146390
20
133.515520
11
131.880190
21
133.426620
0
LINE
8
Layer 1
10
131.880190
20
133.426620
11
132.686340
21
133.426620
0
LINE
8
Layer 1
10
132.686340
20
133.426620
11
140.878090
21
133.426620
0
LINE
8
Layer 1
10
140.878090
20
133.426620
11
147.128360
21
133.426620
0
LINE
8
Layer 1
10
147.128360
20
133.426620
11
154.190460
21
133.426620
0
LINE
8
Layer 1
10
154.190460
20
133.426620
11
157.190280
21
133.426620
0
LINE
8
Layer 1
10
157.190280
20
133.426620
11
157.262080
21
133.426620
0
LINE
8
Layer 1
10
157.262080
20
133.426620
11
161.587910
21
133.426620
0
LINE
8
Layer 1
10
161.587910
20
133.426620
11
162.164100
21
133.426620
0
LINE
8
Layer 1
10
162.164100
20
133.426620
11
163.323720
21
133.426620
0
LINE
8
Layer 1
10
163.323720
20
133.426620
11
164.542250
21
133.426620
0
LINE
8
Layer 1
10
164.542250
20
133.426620
11
165.454340
21
133.426620
0
LINE
8
Layer 1
10
165.454340
20
133.426620
11
169.400350
21
133.426620
0
LINE
8
Layer 1
10
169.400350
20
133.426620
11
169.550210
21
133.444720
0
LINE
8
Layer 1
10
169.550210
20
133.444720
11
169.574010
21
133.447720
0
LINE
8
Layer 1
10
169.574010
20
133.447720
11
170.134180
21
133.515920
0
LINE
8
Layer 1
10
170.134180
20
133.515920
11
170.598230
21
133.686450
0
LINE
8
Layer 1
10
170.598230
20
133.686450
11
170.849380
21
133.779450
0
LINE
8
Layer 1
10
170.849380
20
133.779450
11
171.527370
21
134.212500
0
LINE
8
Layer 1
10
171.527370
20
134.212500
11
171.529370
21
134.213500
0
LINE
8
Layer 1
10
171.529370
20
134.213500
11
171.622370
21
134.301400
0
LINE
8
Layer 1
10
171.622370
20
134.301400
11
171.755180
21
134.426460
0
LINE
8
Layer 1
10
171.755180
20
134.426460
11
172.157220
21
134.805250
0
LINE
8
Layer 1
10
172.157220
20
134.805250
11
172.647110
21
135.450690
0
LINE
8
Layer 1
10
172.647110
20
135.450690
11
172.689510
21
135.506490
0
LINE
8
Layer 1
10
172.689510
20
135.506490
11
172.716410
21
135.541590
0
LINE
8
Layer 1
10
172.716410
20
135.541590
11
173.194420
21
136.402520
0
LINE
8
Layer 1
10
173.194420
20
136.402520
11
173.223320
21
136.474320
0
LINE
8
Layer 1
10
173.223320
20
136.474320
11
173.241420
21
136.520320
0
LINE
8
Layer 1
10
173.241420
20
136.520320
11
173.578870
21
137.368330
0
LINE
8
Layer 1
10
173.578870
20
137.368330
11
173.613970
21
137.498550
0
LINE
8
Layer 1
10
173.613970
20
137.498550
11
173.628970
21
137.554350
0
LINE
8
Layer 1
10
173.628970
20
137.554350
11
173.646070
21
137.617950
0
LINE
8
Layer 1
10
173.646070
20
137.617950
11
173.670370
21
137.707350
0
LINE
8
Layer 1
10
173.670370
20
137.707350
11
173.860020
21
138.415310
0
LINE
8
Layer 1
10
173.860020
20
138.415310
11
173.877120
21
138.522280
0
LINE
8
Layer 1
10
173.877120
20
138.522280
11
174.030080
21
139.503620
0
LINE
8
Layer 1
10
174.030080
20
139.503620
11
174.032080
21
139.517520
0
LINE
8
Layer 1
10
174.032080
20
139.517520
11
174.085780
21
140.570170
0
LINE
8
Layer 1
10
174.085780
20
140.570170
11
174.089780
21
140.646170
0
LINE
8
Layer 1
10
174.089780
20
140.646170
11
174.089780
21
142.424350
0
LINE
8
Layer 1
10
174.089780
20
142.424350
11
173.645880
21
142.424350
0
LINE
8
Layer 1
10
173.645880
20
142.424350
11
165.453610
21
142.424350
0
LINE
8
Layer 1
10
165.453610
20
142.424350
11
163.147810
21
142.424350
0
LINE
8
Layer 1
10
163.147810
20
142.424350
11
162.903900
21
142.453250
0
LINE
8
Layer 1
10
162.903900
20
142.453250
11
162.665670
21
142.541650
0
LINE
8
Layer 1
10
162.665670
20
142.541650
11
162.544750
21
142.618650
0
LINE
8
Layer 1
10
162.544750
20
142.618650
11
162.439840
21
142.685350
0
LINE
8
Layer 1
10
162.439840
20
142.685350
11
162.230550
21
142.882240
0
LINE
8
Layer 1
10
162.230550
20
142.882240
11
162.045040
21
143.127180
0
LINE
8
Layer 1
10
162.045040
20
143.127180
11
161.885870
21
143.413470
0
LINE
8
Layer 1
10
161.885870
20
143.413470
11
161.757720
21
143.734380
0
LINE
8
Layer 1
10
161.757720
20
143.734380
11
161.663620
21
144.082680
0
LINE
8
Layer 1
10
161.663620
20
144.082680
11
161.606820
21
144.448550
0
LINE
8
Layer 1
10
161.606820
20
144.448550
11
161.587720
21
144.824240
0
LINE
8
Layer 1
10
161.587720
20
144.824240
11
161.587720
21
147.794600
0
LINE
8
Layer 1
10
161.587720
20
147.794600
11
161.587720
21
164.028230
0
LINE
8
Layer 1
10
161.587720
20
164.028230
11
161.595720
21
164.178610
0
LINE
8
Layer 1
10
161.595720
20
164.178610
11
161.607120
21
164.404440
0
LINE
8
Layer 1
10
161.607120
20
164.404440
11
161.663920
21
164.770310
0
LINE
8
Layer 1
10
161.663920
20
164.770310
11
161.758020
21
165.118600
0
LINE
8
Layer 1
10
161.758020
20
165.118600
11
161.886180
21
165.439510
0
LINE
8
Layer 1
10
161.886180
20
165.439510
11
162.044830
21
165.725290
0
LINE
8
Layer 1
10
162.044830
20
165.725290
11
162.230860
21
165.970230
0
LINE
8
Layer 1
10
162.230860
20
165.970230
11
162.440150
21
166.167640
0
LINE
8
Layer 1
10
162.440150
20
166.167640
11
162.665980
21
166.311300
0
LINE
8
Layer 1
10
162.665980
20
166.311300
11
162.904210
21
166.399700
0
LINE
8
Layer 1
10
162.904210
20
166.399700
11
163.148120
21
166.428600
0
LINE
8
Layer 1
10
163.148120
20
166.428600
11
165.453920
21
166.428600
0
LINE
8
Layer 1
10
165.453920
20
166.428600
11
173.646190
21
166.428600
0
LINE
8
Layer 1
10
173.646190
20
166.428600
11
174.090090
21
166.428600
0
LINE
8
Layer 1
10
174.090090
20
166.428600
11
174.090090
21
180.562620
0
LINE
8
Layer 1
10
174.090090
20
180.562620
11
174.090090
21
196.946640
0
LINE
8
Layer 1
10
174.090090
20
196.946640
11
174.090090
21
198.406493
0
LINE
8
Layer 1
10
174.090090
20
198.406493
11
174.032190
21
199.529938
0
LINE
8
Layer 1
10
174.032190
20
199.529938
11
174.032190
21
199.535138
0
LINE
8
Layer 1
10
174.032190
20
199.535138
11
174.031190
21
199.535138
0
LINE
8
Layer 1
10
174.031190
20
199.535138
11
173.963990
21
199.961985
0
LINE
8
Layer 1
10
173.963990
20
199.961985
11
173.859080
21
200.636880
0
LINE
8
Layer 1
10
173.859080
20
200.636880
11
173.668910
21
201.344847
0
LINE
8
Layer 1
10
173.668910
20
201.344847
11
173.645110
21
201.434247
0
LINE
8
Layer 1
10
173.645110
20
201.434247
11
173.578410
21
201.682811
0
LINE
8
Layer 1
10
173.578410
20
201.682811
11
173.577890
21
201.683811
0
LINE
8
Layer 1
10
173.577890
20
201.683811
11
173.448180
21
202.009889
0
LINE
8
Layer 1
10
173.448180
20
202.009889
11
173.192900
21
202.649644
0
LINE
8
Layer 1
10
173.192900
20
202.649644
11
172.980000
21
203.033600
0
LINE
8
Layer 1
10
172.980000
20
203.033600
11
172.949000
21
203.089930
0
LINE
8
Layer 1
10
172.949000
20
203.089930
11
172.714910
21
203.511093
0
LINE
8
Layer 1
10
172.714910
20
203.511093
11
172.299940
21
204.057829
0
LINE
8
Layer 1
10
172.299940
20
204.057829
11
172.155770
21
204.246965
0
LINE
8
Layer 1
10
172.155770
20
204.246965
11
171.620920
21
204.750810
0
LINE
8
Layer 1
10
171.620920
20
204.750810
11
171.527920
21
204.838660
0
LINE
8
Layer 1
10
171.527920
20
204.838660
11
171.526920
21
204.839660
0
LINE
8
Layer 1
10
171.526920
20
204.839660
11
171.059770
21
205.137833
0
LINE
8
Layer 1
10
171.059770
20
205.137833
11
170.848410
21
205.272708
0
LINE
8
Layer 1
10
170.848410
20
205.272708
11
170.597270
21
205.365728
0
LINE
8
Layer 1
10
170.597270
20
205.365728
11
170.133210
21
205.536777
0
LINE
8
Layer 1
10
170.133210
20
205.536777
11
169.573560
21
205.604987
0
LINE
8
Layer 1
10
169.573560
20
205.604987
11
169.399410
21
205.625657
0
LINE
8
Layer 1
10
169.399410
20
205.625657
11
165.453390
21
205.625657
0
LINE
8
Layer 1
10
165.453390
20
205.625657
11
157.261130
21
205.625657
0
LINE
8
Layer 1
10
157.261130
20
205.625657
11
157.189330
21
205.625657
0
LINE
8
Layer 1
10
157.189330
20
205.625657
11
152.643870
21
205.625657
0
LINE
8
Layer 1
10
152.643870
20
205.625657
11
150.545290
21
205.625657
0
LINE
8
Layer 1
10
150.545290
20
205.625657
11
148.726280
21
205.625657
0
LINE
8
Layer 1
10
148.726280
20
205.625657
11
147.200790
21
205.625657
0
LINE
8
Layer 1
10
147.200790
20
205.625657
11
145.870120
21
205.625657
0
LINE
8
Layer 1
10
145.870120
20
205.625657
11
145.192130
21
205.625657
0
LINE
8
Layer 1
10
145.192130
20
205.625657
11
145.192130
21
195.024750
0
LINE
8
Layer 1
10
145.192130
20
195.024750
11
145.178230
21
194.805640
0
LINE
8
Layer 1
10
145.178230
20
194.805640
11
145.138430
21
194.591710
0
LINE
8
Layer 1
10
145.138430
20
194.591710
11
145.072330
21
194.388610
0
LINE
8
Layer 1
10
145.072330
20
194.388610
11
144.997430
21
194.234630
0
LINE
8
Layer 1
10
144.997430
20
194.234630
11
144.981430
21
194.202030
0
LINE
8
Layer 1
10
144.981430
20
194.202030
11
144.981430
21
194.201510
0
LINE
8
Layer 1
10
144.981430
20
194.201510
11
144.869290
21
194.034600
0
LINE
8
Layer 1
10
144.869290
20
194.034600
11
144.738550
21
193.891970
0
LINE
8
Layer 1
10
144.738550
20
193.891970
11
144.591270
21
193.776730
0
LINE
8
Layer 1
10
144.591270
20
193.776730
11
144.431590
21
193.693030
0
LINE
8
Layer 1
10
144.431590
20
193.693030
11
144.263640
21
193.641830
0
LINE
8
Layer 1
10
144.263640
20
193.641830
11
144.091560
21
193.624730
0
LINE
8
Layer 1
10
144.091560
20
193.624730
11
140.877290
21
193.624730
0
LINE
8
Layer 1
10
140.877290
20
193.624730
11
135.287450
21
193.624730
0
LINE
8
Layer 1
10
135.287450
20
193.624730
11
135.115360
21
193.641830
0
LINE
8
Layer 1
10
135.115360
20
193.641830
11
134.947420
21
193.693030
0
LINE
8
Layer 1
10
134.947420
20
193.693030
11
134.787740
21
193.776730
0
LINE
8
Layer 1
10
134.787740
20
193.776730
11
134.640460
21
193.891970
0
LINE
8
Layer 1
10
134.640460
20
193.891970
11
134.509720
21
194.034600
0
LINE
8
Layer 1
10
134.509720
20
194.034600
11
134.397580
21
194.202030
0
LINE
8
Layer 1
10
134.397580
20
194.202030
11
134.306680
21
194.388580
0
LINE
8
Layer 1
10
134.306680
20
194.388580
11
134.240580
21
194.591670
0
LINE
8
Layer 1
10
134.240580
20
194.591670
11
134.200780
21
194.805600
0
LINE
8
Layer 1
10
134.200780
20
194.805600
11
134.187380
21
195.024710
0
LINE
8
Layer 1
10
134.187380
20
195.024710
11
134.187380
21
196.947070
0
LINE
8
Layer 1
10
134.187380
20
196.947070
11
134.187380
21
205.626651
0
LINE
8
Layer 1
10
134.187380
20
205.626651
11
132.685670
21
205.626651
0
LINE
8
Layer 1
10
132.685670
20
205.626651
11
131.879810
21
205.626766
0
LINE
8
Layer 1
10
109.643440
20
222.028866
11
110.106970
21
221.956006
0
LINE
8
Layer 1
10
110.106970
20
221.956006
11
110.159170
21
221.929656
0
LINE
8
Layer 1
10
110.159170
20
221.929656
11
110.526070
21
221.743104
0
LINE
8
Layer 1
10
110.526070
20
221.743104
11
110.858350
21
221.409791
0
LINE
8
Layer 1
10
110.858350
20
221.409791
11
111.071260
21
220.991212
0
LINE
8
Layer 1
10
111.071260
20
220.991212
11
111.145160
21
220.527157
0
LINE
8
Layer 1
10
111.145160
20
220.527157
11
111.071260
21
220.063103
0
LINE
8
Layer 1
10
111.071260
20
220.063103
11
110.858350
21
219.644007
0
LINE
8
Layer 1
10
110.858350
20
219.644007
11
110.526070
21
219.311211
0
LINE
8
Layer 1
10
110.526070
20
219.311211
11
110.159170
21
219.124659
0
LINE
8
Layer 1
10
110.159170
20
219.124659
11
110.106970
21
219.097789
0
LINE
8
Layer 1
10
110.106970
20
219.097789
11
109.643440
21
219.024929
0
LINE
8
Layer 1
10
109.643440
20
219.024929
11
109.178350
21
219.097789
0
LINE
8
Layer 1
10
109.178350
20
219.097789
11
108.759250
21
219.311213
0
LINE
8
Layer 1
10
108.759250
20
219.311213
11
108.426970
21
219.644009
0
LINE
8
Layer 1
10
108.426970
20
219.644009
11
108.214070
21
220.063105
0
LINE
8
Layer 1
10
108.214070
20
220.063105
11
108.140170
21
220.527159
0
LINE
8
Layer 1
10
108.140170
20
220.527159
11
108.214070
21
220.991214
0
LINE
8
Layer 1
10
108.214070
20
220.991214
11
108.426970
21
221.409793
0
LINE
8
Layer 1
10
108.426970
20
221.409793
11
108.759250
21
221.743106
0
LINE
8
Layer 1
10
108.759250
20
221.743106
11
109.178350
21
221.956013
0
LINE
8
Layer 1
10
109.178350
20
221.956013
11
109.643440
21
222.028866
0
LINE
8
Layer 1
10
70.742969
20
222.028866
11
71.207023
21
221.955486
0
LINE
8
Layer 1
10
71.207023
20
221.955486
11
71.247333
21
221.935336
0
LINE
8
Layer 1
10
71.247333
20
221.935336
11
71.626121
21
221.742583
0
LINE
8
Layer 1
10
71.626121
20
221.742583
11
71.957884
21
221.409787
0
LINE
8
Layer 1
10
71.957884
20
221.409787
11
72.171307
21
220.990691
0
LINE
8
Layer 1
10
72.171307
20
220.990691
11
72.245207
21
220.526637
0
LINE
8
Layer 1
10
72.245207
20
220.526637
11
72.171307
21
220.062582
0
LINE
8
Layer 1
10
72.171307
20
220.062582
11
71.957884
21
219.643486
0
LINE
8
Layer 1
10
71.957884
20
219.643486
11
71.626121
21
219.310690
0
LINE
8
Layer 1
10
71.626121
20
219.310690
11
71.247333
21
219.117937
0
LINE
8
Layer 1
10
71.247333
20
219.117937
11
71.207023
21
219.097787
0
LINE
8
Layer 1
10
71.207023
20
219.097787
11
70.742969
21
219.024407
0
LINE
8
Layer 1
10
70.742969
20
219.024407
11
70.277881
21
219.097787
0
LINE
8
Layer 1
10
70.277881
20
219.097787
11
69.859302
21
219.310694
0
LINE
8
Layer 1
10
69.859302
20
219.310694
11
69.527022
21
219.643490
0
LINE
8
Layer 1
10
69.527022
20
219.643490
11
69.314115
21
220.062586
0
LINE
8
Layer 1
10
69.314115
20
220.062586
11
69.240215
21
220.526641
0
LINE
8
Layer 1
10
69.240215
20
220.526641
11
69.314115
21
220.990695
0
LINE
8
Layer 1
10
69.314115
20
220.990695
11
69.527022
21
221.409791
0
LINE
8
Layer 1
10
69.527022
20
221.409791
11
69.859302
21
221.742587
0
LINE
8
Layer 1
10
69.859302
20
221.742587
11
70.277881
21
221.955494
0
LINE
8
Layer 1
10
70.277881
20
221.955494
11
70.742969
21
222.028866
0
LINE
8
Layer 1
10
60.190641
20
230.025793
11
60.190641
21
215.712972
0
LINE
8
Layer 1
10
60.190641
20
215.712972
11
58.958675
21
215.712972
0
LINE
8
Layer 1
10
58.958675
20
215.712972
11
57.190824
21
215.712972
0
LINE
8
Layer 1
10
57.190824
20
215.712972
11
57.190824
21
204.838184
0
LINE
8
Layer 1
10
57.190824
20
204.838184
11
58.958675
21
204.838184
0
LINE
8
Layer 1
10
58.958675
20
204.838184
11
60.190641
21
204.838184
0
LINE
8
Layer 1
10
60.190641
20
204.838184
11
60.190641
21
193.963400
0
LINE
8
Layer 1
10
60.190641
20
193.963400
11
58.958675
21
193.963400
0
LINE
8
Layer 1
10
58.958675
20
193.963400
11
57.190824
21
193.963400
0
LINE
8
Layer 1
10
57.190824
20
193.963400
11
57.190824
21
183.088610
0
LINE
8
Layer 1
10
57.190824
20
183.088610
11
58.958675
21
183.088610
0
LINE
8
Layer 1
10
58.958675
20
183.088610
11
60.190641
21
183.088610
0
LINE
8
Layer 1
10
60.190641
20
183.088610
11
60.190641
21
180.562660
0
LINE
8
Layer 1
10
60.190641
20
180.562660
11
60.190641
21
172.213820
0
LINE
8
Layer 1
10
60.190641
20
172.213820
11
58.958675
21
172.213820
0
LINE
8
Layer 1
10
58.958675
20
172.213820
11
57.190824
21
172.213820
0
LINE
8
Layer 1
10
57.190824
20
172.213820
11
57.190824
21
161.338510
0
LINE
8
Layer 1
10
57.190824
20
161.338510
11
58.958675
21
161.338510
0
LINE
8
Layer 1
10
58.958675
20
161.338510
11
60.190641
21
161.338510
0
LINE
8
Layer 1
10
60.190641
20
161.338510
11
60.190641
21
150.026540
0
LINE
8
Layer 1
10
60.190641
20
150.026540
11
60.190641
21
147.794640
0
LINE
8
Layer 1
10
60.190641
20
147.794640
11
60.190641
21
147.026730
0
LINE
8
Layer 1
10
60.190641
20
147.026730
11
73.878695
21
147.026730
0
LINE
8
Layer 1
10
73.878695
20
147.026730
11
73.878695
21
147.794640
0
LINE
8
Layer 1
10
73.878695
20
147.794640
11
73.878695
21
150.026540
0
LINE
8
Layer 1
10
73.878695
20
150.026540
11
84.753483
21
150.026540
0
LINE
8
Layer 1
10
84.753483
20
150.026540
11
84.753483
21
147.794640
0
LINE
8
Layer 1
10
84.753483
20
147.794640
11
84.753483
21
147.026730
0
LINE
8
Layer 1
10
84.753483
20
147.026730
11
91.726701
21
147.026730
0
LINE
8
Layer 1
10
91.726701
20
147.026730
11
95.628788
21
147.026730
0
LINE
8
Layer 1
10
95.628788
20
147.026730
11
95.628788
21
147.794640
0
LINE
8
Layer 1
10
95.628788
20
147.794640
11
95.628788
21
150.026540
0
LINE
8
Layer 1
10
95.628788
20
150.026540
11
106.503580
21
150.026540
0
LINE
8
Layer 1
10
106.503580
20
150.026540
11
106.503580
21
147.794640
0
LINE
8
Layer 1
10
106.503580
20
147.794640
11
106.503580
21
147.026730
0
LINE
8
Layer 1
10
106.503580
20
147.026730
11
120.189560
21
147.026730
0
LINE
8
Layer 1
10
120.189560
20
147.026730
11
120.189560
21
147.794640
0
LINE
8
Layer 1
10
120.189560
20
147.794640
11
120.189560
21
155.024690
0
LINE
8
Layer 1
10
120.189560
20
155.024690
11
120.189560
21
161.338510
0
LINE
8
Layer 1
10
120.189560
20
161.338510
11
123.189380
21
161.338510
0
LINE
8
Layer 1
10
123.189380
20
161.338510
11
123.189380
21
172.213300
0
LINE
8
Layer 1
10
123.189380
20
172.213300
11
120.189560
21
172.213300
0
LINE
8
Layer 1
10
120.189560
20
172.213300
11
120.189560
21
180.562660
0
LINE
8
Layer 1
10
120.189560
20
180.562660
11
120.189560
21
183.088610
0
LINE
8
Layer 1
10
120.189560
20
183.088610
11
123.189380
21
183.088610
0
LINE
8
Layer 1
10
123.189380
20
183.088610
11
123.190380
21
183.088090
0
LINE
8
Layer 1
10
123.190380
20
183.088090
11
123.190380
21
193.962880
0
LINE
8
Layer 1
10
123.190380
20
193.962880
11
120.190600
21
193.962880
0
LINE
8
Layer 1
10
120.190600
20
193.962880
11
120.190600
21
204.838184
0
LINE
8
Layer 1
10
120.190600
20
204.838184
11
123.190410
21
204.838184
0
LINE
8
Layer 1
10
123.190410
20
204.838184
11
123.190410
21
215.712972
0
LINE
8
Layer 1
10
123.190410
20
215.712972
11
120.190600
21
215.712972
0
LINE
8
Layer 1
10
120.190600
20
215.712972
11
120.190600
21
219.024915
0
LINE
8
Layer 1
10
120.190600
20
219.024915
11
120.190600
21
230.025793
0
LINE
8
Layer 1
10
120.190600
20
230.025793
11
111.144640
21
230.025793
0
LINE
8
Layer 1
10
111.144640
20
230.025793
11
108.139650
21
230.025793
0
LINE
8
Layer 1
10
108.139650
20
230.025793
11
91.726701
21
230.025793
0
LINE
8
Layer 1
10
91.726701
20
230.025793
11
72.244686
21
230.025793
0
LINE
8
Layer 1
10
72.244686
20
230.025793
11
69.239701
21
230.025793
0
LINE
8
Layer 1
10
69.239701
20
230.025793
11
60.190641
21
230.025793
0
LINE
8
Layer 1
10
23.190833
20
230.025793
11
23.190833
21
215.712972
0
LINE
8
Layer 1
10
23.190833
20
215.712972
11
26.190649
21
215.712972
0
LINE
8
Layer 1
10
26.190649
20
215.712972
11
26.190649
21
204.838184
0
LINE
8
Layer 1
10
26.190649
20
204.838184
11
23.190833
21
204.838184
0
LINE
8
Layer 1
10
23.190833
20
204.838184
11
23.190833
21
193.962880
0
LINE
8
Layer 1
10
23.190833
20
193.962880
11
26.190649
21
193.962880
0
LINE
8
Layer 1
10
26.190649
20
193.962880
11
26.190649
21
183.088090
0
LINE
8
Layer 1
10
26.190649
20
183.088090
11
23.190833
21
183.088090
0
LINE
8
Layer 1
10
23.190833
20
183.088090
11
23.190833
21
172.212780
0
LINE
8
Layer 1
10
23.190833
20
172.212780
11
26.190649
21
172.212780
0
LINE
8
Layer 1
10
26.190649
20
172.212780
11
26.190649
21
161.338000
0
LINE
8
Layer 1
10
26.190649
20
161.338000
11
23.190833
21
161.338000
0
LINE
8
Layer 1
10
23.190833
20
161.338000
11
23.190833
21
147.025690
0
LINE
8
Layer 1
10
23.190833
20
147.025690
11
26.190649
21
147.025690
0
LINE
8
Layer 1
10
26.190649
20
147.025690
11
33.253784
21
147.025690
0
LINE
8
Layer 1
10
33.253784
20
147.025690
11
33.253784
21
147.794120
0
LINE
8
Layer 1
10
33.253784
20
147.794120
11
33.253784
21
150.026030
0
LINE
8
Layer 1
10
33.253784
20
150.026030
11
44.128573
21
150.026030
0
LINE
8
Layer 1
10
44.128573
20
150.026030
11
44.128573
21
147.794120
0
LINE
8
Layer 1
10
44.128573
20
147.794120
11
44.128573
21
147.025690
0
LINE
8
Layer 1
10
44.128573
20
147.025690
11
54.190491
21
147.025690
0
LINE
8
Layer 1
10
54.190491
20
147.025690
11
54.190491
21
147.794120
0
LINE
8
Layer 1
10
54.190491
20
147.794120
11
54.190491
21
161.338000
0
LINE
8
Layer 1
10
54.190491
20
161.338000
11
51.190674
21
161.338000
0
LINE
8
Layer 1
10
51.190674
20
161.338000
11
51.190674
21
172.212780
0
LINE
8
Layer 1
10
51.190674
20
172.212780
11
54.190491
21
172.212780
0
LINE
8
Layer 1
10
54.190491
20
172.212780
11
54.190491
21
180.562150
0
LINE
8
Layer 1
10
54.190491
20
180.562150
11
54.190491
21
183.088090
0
LINE
8
Layer 1
10
54.190491
20
183.088090
11
51.190674
21
183.088090
0
LINE
8
Layer 1
10
51.190674
20
183.088090
11
51.190674
21
193.962880
0
LINE
8
Layer 1
10
51.190674
20
193.962880
11
54.190491
21
193.962880
0
LINE
8
Layer 1
10
54.190491
20
193.962880
11
54.190491
21
204.838184
0
LINE
8
Layer 1
10
54.190491
20
204.838184
11
51.190674
21
204.838184
0
LINE
8
Layer 1
10
51.190674
20
204.838184
11
51.190674
21
215.712972
0
LINE
8
Layer 1
10
51.190674
20
215.712972
11
54.190491
21
215.712972
0
LINE
8
Layer 1
10
54.190491
20
215.712972
11
54.190491
21
230.025793
0
LINE
8
Layer 1
10
54.190491
20
230.025793
11
51.190674
21
230.025793
0
LINE
8
Layer 1
10
51.190674
20
230.025793
11
26.190649
21
230.025793
0
LINE
8
Layer 1
10
26.190649
20
230.025793
11
23.190833
21
230.025793
 0 
ENDSEC
 0 
EOF