<?xml version="1.0" encoding="UTF-8" standalone="no"?>
<svg
   width="48.899993896484375mm"
   height="74.1999988555908mm"
   viewBox="100 -91.59999847412108 48.899993896484375 74.1999988555908"
   version="1.1"
   id="svg1"
   sodipodi:docname="Placa IdeaBoard EasyPlay (10).svg"
   inkscape:version="1.3.2 (091e20e, 2023-11-25, custom)"
   xmlns:inkscape="http://www.inkscape.org/namespaces/inkscape"
   xmlns:sodipodi="http://sodipodi.sourceforge.net/DTD/sodipodi-0.dtd"
   xmlns="http://www.w3.org/2000/svg"
   xmlns:svg="http://www.w3.org/2000/svg">
  <defs
     id="defs1" />
  <sodipodi:namedview
     id="namedview1"
     pagecolor="#ffffff"
     bordercolor="#000000"
     borderopacity="0.25"
     inkscape:showpageshadow="2"
     inkscape:pageopacity="0.0"
     inkscape:pagecheckerboard="0"
     inkscape:deskcolor="#d1d1d1"
     inkscape:document-units="mm"
     inkscape:zoom="2.635136"
     inkscape:cx="92.405098"
     inkscape:cy="140.22047"
     inkscape:window-width="1920"
     inkscape:window-height="974"
     inkscape:window-x="-11"
     inkscape:window-y="-11"
     inkscape:window-maximized="1"
     inkscape:current-layer="svg1" />
  <title
     id="title1">svgOutput</title>
  <desc
     id="desc1">made with tinkercad</desc>
  <path
     d="M 147.8419952392578 -84.50900268554686 L 147.84228515625 -84.50345611572264 L 147.89999389648438 -83.37999725341795 L 147.89999389648438 -81.9199981689453 L 147.89999389648438 -65.53600311279295 L 147.89999389648438 -51.40200042724608 L 147.45599365234375 -51.40200042724608 L 139.26400756835938 -51.40200042724608 L 136.95799255371094 -51.40200042724608 L 136.71400451660156 -51.3730010986328 L 136.4759979248047 -51.284999847412095 L 136.25 -51.14099884033202 L 136.04100036621094 -50.94400024414061 L 135.85499572753906 -50.699001312255845 L 135.6959991455078 -50.412998199462876 L 135.5679931640625 -50.091999053955064 L 135.4739990234375 -49.74399948120116 L 135.41700744628906 -49.37799835205077 L 135.40557861328125 -49.15200042724608 L 135.3979949951172 -49.00199890136717 L 135.3979949951172 -32.76800155639648 L 135.3979949951172 -29.798000335693352 L 135.41700744628906 -29.42200088500976 L 135.4739990234375 -29.055999755859368 L 135.5679931640625 -28.70800018310546 L 135.6959991455078 -28.386999130249016 L 135.85499572753906 -28.100999832153313 L 136.04100036621094 -27.856000900268548 L 136.25 -27.65900039672851 L 136.35499572753906 -27.59199905395507 L 136.4759979248047 -27.51499938964843 L 136.71400451660156 -27.42700004577636 L 136.95799255371094 -27.39800071716308 L 139.26400756835938 -27.39800071716308 L 147.45599365234375 -27.39800071716308 L 147.89999389648438 -27.39800071716308 L 147.89999389648438 -25.62000083923339 L 147.89599609375 -25.544000625610344 L 147.8419952392578 -24.49099922180175 L 147.83985900878906 -24.477222442626946 L 147.68699645996094 -23.49600028991699 L 147.6699981689453 -23.38899993896484 L 147.47999572753906 -22.68099975585937 L 147.45599365234375 -22.591428756713864 L 147.4390106201172 -22.527999877929684 L 147.4239959716797 -22.47200012207031 L 147.38900756835938 -22.341999053955075 L 147.0512237548828 -21.493774414062496 L 147.0330047607422 -21.44799995422363 L 147.00399780273438 -21.37599945068359 L 146.5260009765625 -20.514999389648434 L 146.4994659423828 -20.479999542236325 L 146.45700073242188 -20.42399978637695 L 145.9669952392578 -19.778999328613278 L 145.56500244140625 -19.39999961853027 L 145.4320068359375 -19.27499961853027 L 145.33900451660156 -19.1870002746582 L 145.3370361328125 -19.185743331909176 L 144.65899658203125 -18.75300025939941 L 144.4080047607422 -18.659999847412106 L 143.94400024414062 -18.489000320434567 L 143.38400268554688 -18.420999526977536 L 143.36000061035156 -18.418104171752926 L 143.2100067138672 -18.39999961853027 L 139.26400756835938 -18.39999961853027 L 138.3523406982422 -18.39999961853027 L 137.133544921875 -18.39999961853027 L 135.97396850585938 -18.39999961853027 L 135.3979949951172 -18.39999961853027 L 131.07200622558594 -18.39999961853027 L 114.68800354003906 -18.39999961853027 L 106.49600219726562 -18.39999961853027 L 105.69000244140625 -18.39999961853027 L 104.95600128173828 -18.489000320434567 L 104.47200012207031 -18.66799926757812 L 104.24099731445312 -18.75300025939941 L 104.23938751220703 -18.754026412963864 L 103.56099700927734 -19.1870002746582 L 103.33499908447266 -19.39999961853027 L 102.93299865722656 -19.778999328613278 L 102.44300079345703 -20.42399978637695 L 102.42400360107422 -20.448999404907223 L 102.42121887207031 -20.45266723632812 L 102.4005126953125 -20.479999542236325 L 102.4000015258789 -20.48068046569824 L 102.3740005493164 -20.514999389648434 L 101.89600372314453 -21.37599945068359 L 101.86699676513672 -21.44799995422363 L 101.51100158691406 -22.341999053955075 L 101.47599792480469 -22.47200012207031 L 101.2300033569336 -23.38899993896484 L 101.21299743652344 -23.49600028991699 L 101.05799865722656 -24.49099922180175 L 101.05599975585938 -24.520000457763665 L 101.05315399169922 -24.57600021362304 L 101.00399780273438 -25.544000625610344 L 101 -25.62000083923339 L 101 -25.622768402099602 L 101 -25.986070632934563 L 101 -27.39800071716308 L 112.052001953125 -27.39800071716308 L 112.27899932861328 -27.42700004577636 L 112.5 -27.51499938964843 L 112.61299896240234 -27.59199905395507 L 112.71099853515625 -27.65900039672851 L 112.90499877929688 -27.856000900268548 L 113.0780029296875 -28.100999832153313 L 113.2249984741211 -28.386999130249016 L 113.34400177001953 -28.70800018310546 L 113.43199920654297 -29.055999755859368 L 113.48500061035156 -29.42200088500976 L 113.50299835205078 -29.798000335693352 L 113.50299835205078 -32.76800155639648 L 113.50299835205078 -49.00199890136717 L 113.49581909179688 -49.15200042724608 L 113.48500061035156 -49.37799835205077 L 113.43199920654297 -49.74399948120116 L 113.34400177001953 -50.091999053955064 L 113.2249984741211 -50.412998199462876 L 113.0780029296875 -50.699001312255845 L 112.90499877929688 -50.94400024414061 L 112.71099853515625 -51.14099884033202 L 112.5 -51.284999847412095 L 112.27899932861328 -51.3730010986328 L 112.052001953125 -51.40200042724608 L 106.49600219726562 -51.40200042724608 L 101 -51.40200042724608 L 101 -57.34400177001952 L 101 -65.53600311279295 L 101 -68.06982421874999 L 101 -73.72799682617186 L 101 -81.9199981689453 L 101 -83.37999725341795 L 101.0270004272461 -83.91200256347655 L 101.05799865722656 -84.50900268554686 L 101.125 -84.93599700927733 L 101.2300033569336 -85.61100006103514 L 101.23218536376953 -85.61912536621092 L 101.3239974975586 -85.95999908447264 L 101.33900451660156 -86.01599884033202 L 101.51077270507812 -86.65716552734374 L 101.51100158691406 -86.65799713134764 L 101.64099884033203 -86.98400115966795 L 101.89600372314453 -87.62400054931639 L 102.3740005493164 -88.48500061035155 L 102.4000015258789 -88.51931762695311 L 102.42400360107422 -88.55100250244139 L 102.78900146484375 -89.03199768066405 L 102.93299865722656 -89.2210006713867 L 103.447998046875 -89.70700073242186 L 103.56099700927734 -89.81300354003905 L 104.02947998046875 -90.11199951171874 L 104.23938751220703 -90.24597167968749 L 104.24099731445312 -90.2470016479492 L 104.47200012207031 -90.33200073242186 L 104.95600128173828 -90.51100158691405 L 105.49600219726562 -90.57700347900389 L 105.69000244140625 -90.59999847412108 L 106.49600219726562 -90.59999847412108 L 107.99800109863281 -90.59999847412108 L 107.99800109863281 -81.9199981689453 L 107.99800109863281 -79.9980010986328 L 108.01100158691406 -79.77899932861327 L 108.0510025024414 -79.56500244140624 L 108.11699676513672 -79.36199951171874 L 108.20800018310547 -79.1750030517578 L 108.31999969482422 -79.00800323486327 L 108.45099639892578 -78.86499786376952 L 108.5979995727539 -78.74999999999999 L 108.75800323486328 -78.66600036621092 L 108.9260025024414 -78.61499786376952 L 109.0979995727539 -78.59799957275389 L 114.68800354003906 -78.59799957275389 L 117.9020004272461 -78.59799957275389 L 118.0739974975586 -78.61499786376952 L 118.24199676513672 -78.66600036621092 L 118.4020004272461 -78.74999999999999 L 118.54900360107422 -78.86499786376952 L 118.68000030517578 -79.00800323486327 L 118.79174041748047 -79.1746139526367 L 118.79199981689453 -79.1750030517578 L 118.80799865722656 -79.20800018310545 L 118.88300323486328 -79.36199951171874 L 118.9489974975586 -79.56500244140624 L 118.98899841308594 -79.77899932861327 L 119.00299835205078 -79.9980010986328 L 119.00299835205078 -90.59999847412108 L 119.68075561523438 -90.59999847412108 L 121.0116195678711 -90.59999847412108 L 122.53673553466797 -90.59999847412108 L 124.35604858398438 -90.59999847412108 L 126.45427703857422 -90.59999847412108 L 131.07200622558594 -90.59999847412108 L 139.26400756835938 -90.59999847412108 L 143.2100067138672 -90.59999847412108 L 143.38400268554688 -90.57900238037108 L 143.94400024414062 -90.51100158691405 L 144.4080047607422 -90.33999633789061 L 144.65899658203125 -90.2470016479492 L 144.87051391601562 -90.11199951171874 L 145.3377227783203 -89.81381988525389 L 145.33900451660156 -89.81300354003905 L 145.4320068359375 -89.72499847412108 L 145.9669952392578 -89.2210006713867 L 146.11099243164062 -89.03199768066405 L 146.5260009765625 -88.48500061035155 L 146.7598876953125 -88.06400299072264 L 146.79100036621094 -88.00800323486327 L 147.00399780273438 -87.62400054931639 L 147.25900268554688 -86.98400115966795 L 147.38900756835938 -86.65799713134764 L 147.38922119140625 -86.6571578979492 L 147.45599365234375 -86.40840911865233 L 147.47999572753906 -86.31900024414061 L 147.6699981689453 -85.61100006103514 L 147.77499389648438 -84.93599700927733 L 147.8419952392578 -84.50900268554686 M 145.2899932861328 -85.95999908447264 L 145.31874084472656 -86.01599884033202 L 145.32899475097656 -86.03600311279295 L 145.4029998779297 -86.49999999999999 L 145.32899475097656 -86.96399688720702 L 145.31900024414062 -86.98400115966795 L 145.11599731445312 -87.38300323486327 L 144.7830047607422 -87.71600341796874 L 144.36399841308594 -87.92900085449217 L 143.89999389648438 -88.00299835205077 L 143.43600463867188 -87.92900085449217 L 143.38400268554688 -87.90299987792967 L 143.36000061035156 -87.89076995849608 L 143.01699829101562 -87.71600341796874 L 142.6840057373047 -87.38300323486327 L 142.4810028076172 -86.98400115966795 L 142.4709930419922 -86.96399688720702 L 142.3979949951172 -86.49999999999999 L 142.4709930419922 -86.03600311279295 L 142.48117065429688 -86.01599884033202 L 142.6840057373047 -85.6169967651367 L 143.01699829101562 -85.28399658203124 L 143.38400268554688 -85.0970001220703 L 143.43600463867188 -85.0709991455078 L 143.89999389648438 -84.9980010986328 L 144.36399841308594 -85.0709991455078 L 144.7830047607422 -85.28399658203124 L 145.1118621826172 -85.61286163330077 L 145.11599731445312 -85.6169967651367 L 145.2899932861328 -85.95999908447264 M 136.427001953125 -75.51499938964842 L 136.3000030517578 -75.26599884033202 L 136.22718811035156 -74.80318450927733 L 136.2270050048828 -74.80200195312499 L 136.24400329589844 -74.6959991455078 L 136.3000030517578 -74.33899688720702 L 136.427001953125 -74.08899688720702 L 136.51300048828125 -73.9199981689453 L 136.7050018310547 -73.72799682617186 L 136.84500122070312 -73.58799743652342 L 137.26400756835938 -73.37499999999999 L 137.7270050048828 -73.30200195312499 L 138.1909942626953 -73.37499999999999 L 138.60899353027344 -73.58799743652342 L 138.74899291992188 -73.72799682617186 L 138.9409942626953 -73.9199981689453 L 139.15216064453125 -74.33539581298827 L 139.1540069580078 -74.33899688720702 L 139.2100067138672 -74.6959991455078 L 139.2270050048828 -74.80200195312499 L 139.1540069580078 -75.26599884033202 L 138.9409942626953 -75.68399810791014 L 138.8489990234375 -75.77600097656249 L 138.60899353027344 -76.01599884033202 L 138.1909942626953 -76.22899627685545 L 137.7270050048828 -76.30300140380858 L 137.26400756835938 -76.22899627685545 L 136.84500122070312 -76.01599884033202 L 136.60499572753906 -75.77600097656249 L 136.51339721679688 -75.6844024658203 L 136.51300048828125 -75.68399810791014 L 136.427001953125 -75.51499938964842 M 106.38999938964844 -85.95999908447264 L 106.41873931884766 -86.01599884033202 L 106.42900085449219 -86.03600311279295 L 106.49600219726562 -86.4561080932617 L 106.50299835205078 -86.49999999999999 L 106.49600219726562 -86.54389190673827 L 106.42900085449219 -86.96399688720702 L 106.41899871826172 -86.98400115966795 L 106.21600341796875 -87.38300323486327 L 105.88300323486328 -87.71600341796874 L 105.46399688720703 -87.92900085449217 L 105 -88.00299835205077 L 104.53600311279297 -87.92900085449217 L 104.47200012207031 -87.89700317382811 L 104.447998046875 -87.88476562499999 L 104.11699676513672 -87.71600341796874 L 103.78399658203125 -87.38300323486327 L 103.58100128173828 -86.98400115966795 L 103.57099914550781 -86.96399688720702 L 103.49800109863281 -86.49999999999999 L 103.57099914550781 -86.03600311279295 L 103.58126068115234 -86.01599884033202 L 103.61000061035156 -85.95999908447264 L 103.78399658203125 -85.6169967651367 L 104.11071014404297 -85.29029083251952 L 104.11699676513672 -85.28399658203124 L 104.47200012207031 -85.10399627685545 L 104.53600311279297 -85.0709991455078 L 105 -84.9980010986328 L 105.46399688720703 -85.0709991455078 L 105.88300323486328 -85.28399658203124 L 106.21600341796875 -85.6169967651367 L 106.38999938964844 -85.95999908447264 M 112.45600128173828 -74.6959991455078 L 112.4729995727539 -74.80200195312499 L 112.47281646728516 -74.80318450927733 L 112.4000015258789 -75.26599884033202 L 112.18599700927734 -75.68399810791014 L 111.8550033569336 -76.01599884033202 L 111.43599700927734 -76.22899627685545 L 110.973876953125 -76.30285644531249 L 110.9729995727539 -76.30300140380858 L 110.61599731445312 -76.24600219726561 L 110.59200286865234 -76.24218749999999 L 110.50900268554688 -76.22899627685545 L 110.09100341796875 -76.01599884033202 L 109.75900268554688 -75.68399810791014 L 109.5459976196289 -75.26599884033202 L 109.47319030761719 -74.80318450927733 L 109.4729995727539 -74.80200195312499 L 109.48999786376953 -74.6959991455078 L 109.5459976196289 -74.33899688720702 L 109.75900268554688 -73.9199981689453 L 109.95099639892578 -73.72799682617186 L 110.09100341796875 -73.58799743652342 L 110.50900268554688 -73.37499999999999 L 110.61599731445312 -73.35800170898436 L 110.9729995727539 -73.30200195312499 L 111.43599700927734 -73.37499999999999 L 111.8550033569336 -73.58799743652342 L 111.99457550048828 -73.72799682617186 L 112.18599700927734 -73.9199981689453 L 112.4000015258789 -74.33899688720702 L 112.45600128173828 -74.6959991455078 M 145.97000122070312 -80.28500366210936 L 145.94500732421875 -80.43599700927733 L 145.91400146484375 -80.5709991455078 L 145.87899780273438 -80.68699645996092 L 145.85267639160156 -80.74606323242186 L 145.83799743652344 -80.77899932861327 L 145.7989959716797 -80.83999633789061 L 145.7949981689453 -80.8470001220703 L 145.74899291992188 -80.88899993896483 L 145.70199584960938 -80.90299987792967 L 143.36000061035156 -80.90299987792967 L 143.29800415039062 -80.90299987792967 L 143.25100708007812 -80.88899993896483 L 143.20614624023438 -80.84804534912108 L 143.2050018310547 -80.8470001220703 L 143.2010040283203 -80.83999633789061 L 143.16200256347656 -80.77899932861327 L 143.12100219726562 -80.68699645996092 L 143.08599853515625 -80.5709991455078 L 143.05499267578125 -80.43599700927733 L 143.02999877929688 -80.28500366210936 L 143.01199340820312 -80.12100219726561 L 143.00100708007812 -79.94899749755858 L 142.9980010986328 -79.77200317382811 L 142.9980010986328 -77.82399749755858 L 142.9980010986328 -73.72799682617186 L 142.9980010986328 -70.72799682617186 L 143 -70.59999847412108 L 143.00100708007812 -70.55100250244139 L 143.01199340820312 -70.37899780273436 L 143.02999877929688 -70.21499633789061 L 143.05499267578125 -70.06400299072264 L 143.08599853515625 -69.92900085449217 L 143.12100219726562 -69.81300354003905 L 143.16200256347656 -69.7210006713867 L 143.2050018310547 -69.65299987792967 L 143.22799682617188 -69.63200378417967 L 143.25100708007812 -69.61100006103514 L 143.29800415039062 -69.59799957275389 L 145.70199584960938 -69.59799957275389 L 145.74899291992188 -69.61100006103514 L 145.77200317382812 -69.63200378417967 L 145.7949981689453 -69.65299987792967 L 145.83799743652344 -69.7210006713867 L 145.87899780273438 -69.81300354003905 L 145.91400146484375 -69.92900085449217 L 145.94500732421875 -70.06400299072264 L 145.97000122070312 -70.21499633789061 L 145.98800659179688 -70.37899780273436 L 145.99876403808594 -70.54733276367186 L 145.99899291992188 -70.55100250244139 L 146 -70.59999847412108 L 146.0030059814453 -70.72799682617186 L 146.0030059814453 -73.72799682617186 L 146.0030059814453 -77.82399749755858 L 146.0030059814453 -79.77200317382811 L 145.99899291992188 -79.94899749755858 L 145.98800659179688 -80.12100219726561 L 145.97000122070312 -80.28500366210936 M 139.26400756835938 -56.43822097778319 L 139.14100646972656 -56.67900085449217 L 138.8090057373047 -57.01100158691405 L 138.39100646972656 -57.223999023437486 L 137.927001953125 -57.298000335693345 L 137.46400451660156 -57.223999023437486 L 137.0449981689453 -57.01100158691405 L 136.71400451660156 -56.67900085449217 L 136.50100708007812 -56.26399993896483 L 136.5 -56.26100158691405 L 136.427001953125 -55.79700088500975 L 136.5 -55.33399963378905 L 136.5194091796875 -55.29600143432616 L 136.71400451660156 -54.91500091552733 L 137.0449981689453 -54.583000183105455 L 137.46400451660156 -54.36999893188475 L 137.927001953125 -54.29700088500975 L 138.39100646972656 -54.36999893188475 L 138.8090057373047 -54.583000183105455 L 139.14100646972656 -54.91500091552733 L 139.26400756835938 -55.15695953369139 L 139.35400390625 -55.33399963378905 L 139.42799377441406 -55.79700088500975 L 139.35400390625 -56.26100158691405 L 139.35299682617188 -56.26399993896483 L 139.26400756835938 -56.43822097778319 M 112.18599700927734 -56.67900085449217 L 111.8550033569336 -57.01100158691405 L 111.43599700927734 -57.223999023437486 L 110.973876953125 -57.29785919189452 L 110.9729995727539 -57.298000335693345 L 110.61599731445312 -57.241001129150376 L 110.59200286865234 -57.23718643188475 L 110.50900268554688 -57.223999023437486 L 110.09100341796875 -57.01100158691405 L 109.75900268554688 -56.67900085449217 L 109.5469970703125 -56.26399993896483 L 109.5459976196289 -56.26100158691405 L 109.4729995727539 -55.79700088500975 L 109.5459976196289 -55.33399963378905 L 109.75900268554688 -54.91500091552733 L 110.09100341796875 -54.583000183105455 L 110.50900268554688 -54.36999893188475 L 110.59200286865234 -54.356811523437486 L 110.61599731445312 -54.353000640869126 L 110.9729995727539 -54.29700088500975 L 111.43599700927734 -54.36999893188475 L 111.8550033569336 -54.583000183105455 L 112.18599700927734 -54.91500091552733 L 112.4000015258789 -55.33399963378905 L 112.4729995727539 -55.79700088500975 L 112.4000015258789 -56.26100158691405 L 112.39900207519531 -56.26399993896483 L 112.18599700927734 -56.67900085449217 M 145.39852905273438 -22.527999877929684 L 145.32899475097656 -22.964000701904293 L 145.11599731445312 -23.382999420166012 L 144.7830047607422 -23.71599960327148 L 144.4080047607422 -23.90699958801269 L 144.36399841308594 -23.929000854492184 L 143.89999389648438 -24.003000259399407 L 143.43600463867188 -23.929000854492184 L 143.38400268554688 -23.902999877929684 L 143.36000061035156 -23.890771865844723 L 143.01699829101562 -23.71599960327148 L 142.6840057373047 -23.382999420166012 L 142.4709930419922 -22.964000701904293 L 142.3979949951172 -22.499999999999996 L 142.4709930419922 -22.0359992980957 L 142.6840057373047 -21.61700057983398 L 143.01699829101562 -21.284000396728512 L 143.36000061035156 -21.10922813415527 L 143.38400268554688 -21.09700012207031 L 143.43600463867188 -21.07099914550781 L 143.89999389648438 -20.997999191284176 L 144.36399841308594 -21.07099914550781 L 144.7830047607422 -21.284000396728512 L 145.11599731445312 -21.61700057983398 L 145.32899475097656 -22.0359992980957 L 145.3990020751953 -22.47200012207031 L 145.4029998779297 -22.499999999999996 L 145.39852905273438 -22.527999877929684 M 103.57099914550781 -22.964000701904293 L 103.50240325927734 -22.527999877929684 L 103.49800109863281 -22.499999999999996 L 103.50199890136719 -22.47200012207031 L 103.57099914550781 -22.0359992980957 L 103.78399658203125 -21.61700057983398 L 104.11699676513672 -21.284000396728512 L 104.47200012207031 -21.103000640869137 L 104.53600311279297 -21.07099914550781 L 105 -20.997999191284176 L 105.46399688720703 -21.07099914550781 L 105.88300323486328 -21.284000396728512 L 106.21600341796875 -21.61700057983398 L 106.42900085449219 -22.0359992980957 L 106.49600219726562 -22.456108093261715 L 106.50299835205078 -22.499999999999996 L 106.49600219726562 -22.543891906738278 L 106.42900085449219 -22.964000701904293 L 106.21600341796875 -23.382999420166012 L 105.88300323486328 -23.71599960327148 L 105.46399688720703 -23.929000854492184 L 105 -24.003000259399407 L 104.53758239746094 -23.929252624511715 L 104.53600311279297 -23.929000854492184 L 104.47200012207031 -23.895999908447262 L 104.11699676513672 -23.71599960327148 L 103.78399658203125 -23.382999420166012 L 103.57099914550781 -22.964000701904293 z"
     fill="none"
     stroke="rgb(255,0,0)"
     stroke-width="0.001mm"
     id="path1"
     style="fill:#000000;fill-opacity:1" />
</svg>
